<?xml version="1.0" encoding="UTF-8"?>
<svg version="1.1" xmlns="http://www.w3.org/2000/svg" width="1024" height="1024">
<path d="M0 0 C337.92 0 675.84 0 1024 0 C1024 337.92 1024 675.84 1024 1024 C686.08 1024 348.16 1024 0 1024 C0 686.08 0 348.16 0 0 Z " fill="#FCFCFC" transform="translate(0,0)"/>
<path d="M0 0 C337.92 0 675.84 0 1024 0 C1024 337.92 1024 675.84 1024 1024 C686.08 1024 348.16 1024 0 1024 C0 686.08 0 348.16 0 0 Z M36 31 C34.94039062 31.92039062 34.94039062 31.92039062 33.859375 32.859375 C20.85541594 44.83940028 11.8209965 63.60455562 10.81539955 81.23680492 C10.74259051 85.04129594 10.73267619 88.84306692 10.74552441 92.64795876 C10.74313157 94.1248523 10.73986446 95.60174465 10.73580781 97.07863456 C10.7272049 101.13279909 10.73100715 105.18687079 10.73686353 109.2410367 C10.74103869 113.65341437 10.73362911 118.06577524 10.72771102 122.47814882 C10.71894911 130.21021608 10.71763688 137.94225686 10.72121429 145.67432785 C10.72652012 157.17247208 10.72042715 168.67059066 10.71213136 180.1687321 C10.69688397 201.89970985 10.6951871 223.63067596 10.69765439 245.36165793 C10.6994866 262.14332204 10.69772895 278.92498233 10.69342995 295.70664597 C10.69282755 298.11713781 10.69222635 300.52762965 10.69162634 302.93812149 C10.69071909 306.5704674 10.68981043 310.20281331 10.68889399 313.83515922 C10.68046315 347.61172307 10.67612963 381.38828548 10.68030071 415.16485023 C10.68045709 416.43841212 10.68061346 417.71197401 10.68077458 419.02412869 C10.68158037 425.4791185 10.68242614 431.93410831 10.68328788 438.38909812 C10.68345897 439.67108956 10.68363006 440.953081 10.68380633 442.27392066 C10.68415298 444.86642019 10.68450151 447.45891972 10.68485192 450.05141926 C10.69020854 490.38633893 10.68228089 530.72123675 10.66381836 571.05615234 C10.64310156 616.36906444 10.63237511 661.68196299 10.63639385 706.99488008 C10.63678919 711.82673987 10.63715074 716.65859965 10.63749123 721.49045944 C10.63758196 722.68019138 10.63767269 723.86992333 10.63776617 725.09570775 C10.63893212 743.05550627 10.63228398 761.01529111 10.62167931 778.97508621 C10.60962988 799.40255736 10.60806533 819.82999838 10.62046947 840.25746997 C10.62709951 851.68748823 10.62546367 863.11743447 10.61188096 874.54744697 C10.60363582 882.18644579 10.60633489 889.82539067 10.61785623 897.4643851 C10.624112 901.81417222 10.62571511 906.16381881 10.61399289 910.5135978 C10.60340474 914.47915971 10.60689074 918.44446289 10.62109742 922.41001121 C10.62380186 923.82753328 10.62160538 925.24507654 10.61359027 926.66257853 C10.48931882 950.27230327 16.54538696 973.05335375 33.27734375 990.27734375 C34.17582031 991.17582031 35.07429688 992.07429687 36 993 C36.68191406 993.68191406 37.36382812 994.36382813 38.06640625 995.06640625 C49.65309192 1005.87903358 66.26359433 1013.12007435 82.19091129 1013.1276505 C84.07552918 1013.13217445 84.07552918 1013.13217445 85.99822015 1013.1367898 C87.39269884 1013.13509085 88.78717742 1013.13330012 90.18165588 1013.13142776 C91.66897757 1013.13307752 93.15629883 1013.13516385 94.64361936 1013.13764787 C98.75000655 1013.14322277 102.85637292 1013.14254059 106.96276268 1013.14087028 C111.42303675 1013.14014032 115.88330488 1013.14515944 120.34357643 1013.1494453 C129.19871714 1013.15703327 138.05385183 1013.15921876 146.90899545 1013.15977435 C157.51219333 1013.16068721 168.11538561 1013.16735244 178.71858109 1013.17412117 C204.34868111 1013.19019181 229.97878054 1013.19608568 255.60888469 1013.20086992 C267.7308658 1013.20320483 279.85284643 1013.20680737 291.97482717 1013.2105653 C333.45988178 1013.22340181 374.94493612 1013.23412087 416.42999268 1013.2375679 C419.03488509 1013.23778954 421.6397775 1013.23801132 424.24466991 1013.23823325 C426.85590045 1013.23845389 429.46713098 1013.23867438 432.07836151 1013.2388947 C437.31705221 1013.23933726 442.5557429 1013.23978437 447.79443359 1013.24023438 C449.09332728 1013.24034377 450.39222097 1013.24045316 451.73047507 1013.24056586 C493.85127664 1013.24419685 535.972061 1013.26011794 578.09285598 1013.28342474 C622.61273736 1013.30801404 667.13260891 1013.32174033 711.65249729 1013.32293582 C716.53858503 1013.32310728 721.42467276 1013.32332271 726.3107605 1013.32357025 C727.51387557 1013.32362602 728.71699063 1013.32368179 729.95656373 1013.32373925 C749.32866234 1013.32489049 768.7007433 1013.33591875 788.07283594 1013.35045731 C807.54054231 1013.36481509 827.00822603 1013.36806335 846.47593623 1013.36001733 C858.04431197 1013.35555766 869.61261469 1013.35943519 881.18098086 1013.37525584 C888.9085497 1013.38499682 896.63606731 1013.38383599 904.36363566 1013.37381961 C908.76656108 1013.36842124 913.16934616 1013.36773791 917.57226002 1013.38032833 C921.5825842 1013.39170034 925.59265436 1013.38910677 929.60296991 1013.37566125 C931.04007395 1013.37323785 932.47719777 1013.37577359 933.91427997 1013.38405773 C945.96245578 1013.44891027 957.17672232 1011.79450276 968.1875 1006.75 C969.19792358 1006.29548462 969.19792358 1006.29548462 970.22875977 1005.83178711 C975.97299976 1003.1665644 981.05818745 999.97078974 986 996 C986.75539063 995.43023438 987.51078125 994.86046875 988.2890625 994.2734375 C1002.73763534 982.60534603 1011.59196988 962.62425963 1013.78756996 944.5595222 C1014.25644372 938.91016674 1014.14075206 933.23461304 1014.13422108 927.56969547 C1014.13617594 926.09202569 1014.13856552 924.61435642 1014.14134905 923.13668796 C1014.14773534 919.07105961 1014.14791177 915.00545105 1014.14707164 910.93981863 C1014.14724141 906.51845197 1014.15315057 902.09709235 1014.1583125 897.67572922 C1014.16763324 888.90416725 1014.17155966 880.13261033 1014.17383147 871.36104403 C1014.17679488 860.85526897 1014.18549307 850.34950059 1014.19424575 839.84372904 C1014.21508479 814.45149324 1014.22555885 789.05925628 1014.23437535 763.66701391 C1014.23858238 751.65462263 1014.24380428 739.64223185 1014.24905988 727.62984098 C1014.26694905 686.50953576 1014.28194531 645.38923039 1014.28938007 604.26892185 C1014.28985483 601.68765054 1014.29033072 599.10637923 1014.29080774 596.52510792 C1014.29104411 595.24503324 1014.29128049 593.96495856 1014.29152403 592.64609375 C1014.29272522 586.16062825 1014.29394067 579.67516276 1014.29516602 573.18969727 C1014.29552624 571.25911013 1014.29552624 571.25911013 1014.29589374 569.28952123 C1014.30378738 527.55623492 1014.32722109 485.82297702 1014.35972196 444.08970312 C1014.3940217 399.96600605 1014.41373131 355.84232561 1014.41702431 311.718615 C1014.41744185 306.87462961 1014.41792142 302.03064423 1014.41844749 297.18665886 C1014.41857069 295.99393504 1014.41869388 294.80121122 1014.4188208 293.57234425 C1014.42115255 274.38065123 1014.43681101 255.18899123 1014.45728934 235.99730998 C1014.47754762 216.70576907 1014.48302459 197.4142678 1014.47351871 178.12271822 C1014.46830392 166.66401285 1014.4741803 155.2054395 1014.49605338 143.74675314 C1014.50956845 136.08729078 1014.50847818 128.42791922 1014.49565142 120.76845594 C1014.48875962 116.40772987 1014.48806857 112.04725606 1014.50521151 107.68655259 C1015.06749758 79.2956105 1015.06749758 79.2956105 1006.3125 52.625 C1005.9714624 51.97273438 1005.6304248 51.32046875 1005.27905273 50.6484375 C995.59131574 32.78097068 979.61062919 20.58844008 960.58203125 14.0078125 C951.03903169 11.32286824 942.11016313 10.71172674 932.2086916 10.74273109 C930.71614642 10.74003451 929.22360262 10.73646487 927.73106137 10.73210663 C923.63344897 10.72267438 919.53592578 10.7256409 915.43830907 10.73066217 C910.97884427 10.73393398 906.51939832 10.72564195 902.05993956 10.71884382 C894.24523189 10.70854218 886.43054898 10.70570031 878.61583519 10.70775604 C866.99485612 10.71080558 855.37390447 10.7024831 843.75293074 10.69200679 C821.79018268 10.67266066 799.82744395 10.66703835 777.86468837 10.66589268 C760.90471645 10.66497375 743.94474819 10.66085792 726.98477745 10.65449142 C722.10367368 10.65269635 717.22256991 10.65091672 712.34146613 10.64914167 C711.12802562 10.64869957 709.91458511 10.64825748 708.66437368 10.64780198 C674.53057438 10.63549287 640.39677635 10.62760093 606.26297474 10.62848854 C604.97594189 10.6285197 603.68890904 10.62855086 602.36287519 10.62858296 C595.83958848 10.62874917 589.31630176 10.62894726 582.79301504 10.62915237 C580.8496764 10.62921221 580.8496764 10.62921221 578.8670784 10.62927325 C576.24714213 10.62935413 573.62720586 10.62943772 571.00726958 10.62952404 C530.24270648 10.63074962 489.47817664 10.6157352 448.71362305 10.58837891 C402.9198544 10.5576603 357.12610762 10.54044627 311.33232802 10.54230535 C306.44965247 10.54245461 301.56697693 10.54255203 296.68430138 10.54261398 C294.8809298 10.54264895 294.8809298 10.54264895 293.04112647 10.54268462 C273.69107919 10.54274617 254.34106079 10.52997267 234.9910221 10.51274945 C215.54516859 10.49579889 196.09935734 10.49381464 176.65350053 10.5069681 C165.10105244 10.51436098 153.5487327 10.51068911 141.9962982 10.49108342 C134.27696874 10.47908977 126.55773231 10.48166768 118.83840713 10.49602441 C114.44188692 10.50379252 110.0456152 10.50532447 105.64911244 10.48910971 C101.64228508 10.47446181 97.63591119 10.47852924 93.62910341 10.49695744 C92.1955455 10.50037462 90.76195129 10.49722731 89.32843054 10.48635503 C68.71510901 10.3406011 51.29761824 17.06650059 36 31 Z " fill="#505050" transform="translate(0,0)"/>
<path d="M0 0 C4.05271558 0.39732506 7.0696493 1.67780292 10.1875 4.3125 C14.14643606 9.78269268 14.22618528 14.77932013 13.1875 21.3125 C10.57773097 28.55658616 7.46713771 34.06449722 2.0625 39.4453125 C-2.83721685 44.84443231 -3.34289133 49.90735872 -3.8125 57 C-3.96755005 58.80670166 -3.96755005 58.80670166 -4.12573242 60.64990234 C-6.11094818 86.40629394 -4.46275475 108.12164204 3.9440918 132.50024414 C11.52849998 154.56003708 12.69703936 173.07777508 10.96069336 196.18920898 C10.74746038 199.03388027 10.54401942 201.87913615 10.34179688 204.72460938 C10.20889817 206.54952039 10.07545508 208.37439186 9.94140625 210.19921875 C9.8809462 211.04191818 9.82048615 211.88461761 9.75819397 212.75285339 C9.4590225 216.68708502 9.02468725 220.45028723 8.1875 224.3125 C7.66094366 228.44871262 7.27925592 232.60023934 6.875 236.75 C6.74528809 238.04719971 6.61557617 239.34439941 6.48193359 240.6809082 C5.55853732 250.18814188 4.88225777 259.70184657 4.27734375 269.234375 C4.11600548 271.68955847 3.95430103 274.14471789 3.79223633 276.59985352 C3.5482641 280.29833595 3.31270445 283.99639015 3.1031189 287.69699097 C2.90450439 291.19937108 2.67745804 294.69892431 2.4453125 298.19921875 C2.39314072 299.26150696 2.34096893 300.32379517 2.28721619 301.41827393 C1.77846845 308.54052312 1.77846845 308.54052312 -0.84985352 311.97387695 C-4.8297553 313.77213006 -8.14896374 313.88790546 -12.47265625 313.84375 C-13.71298866 313.84949036 -13.71298866 313.84949036 -14.9783783 313.85534668 C-16.72070539 313.8580607 -18.46307358 313.85073522 -20.20532227 313.83398438 C-22.8702267 313.81253841 -25.53244387 313.83381552 -28.19726562 313.859375 C-29.8932351 313.85673216 -31.58920292 313.8516081 -33.28515625 313.84375 C-34.08002945 313.85184692 -34.87490265 313.85994385 -35.69386292 313.86828613 C-38.98490636 313.81253856 -41.28227188 313.67991425 -44.02555847 311.7789917 C-46.48794268 308.38019542 -46.34378063 305.36884931 -46.26660156 301.33105469 C-46.26718567 300.5306778 -46.26776978 299.7303009 -46.26837158 298.90567017 C-46.26558875 296.26479455 -46.23448834 293.62505299 -46.203125 290.984375 C-46.1956633 289.15163795 -46.18997003 287.31889291 -46.18597412 285.48614502 C-46.17071221 280.66579098 -46.13142562 275.84592015 -46.0871582 271.02575684 C-46.04621751 266.10577939 -46.02796567 261.18572375 -46.0078125 256.265625 C-45.96493189 246.6143712 -45.89667381 236.9634758 -45.8125 227.3125 C-48.93017752 230.37622748 -51.59137519 233.16411184 -53.8125 236.9375 C-54.26625 237.69289063 -54.72 238.44828125 -55.1875 239.2265625 C-61.17090861 250.58928558 -65.04565807 262.52736834 -69.00488281 274.70068359 C-79.03372767 305.42978488 -79.03372767 305.42978488 -92.07421875 312.546875 C-99.10483634 315.84135795 -105.96866214 317.62141666 -113.75390625 317.68359375 C-114.88233948 317.70019547 -114.88233948 317.70019547 -116.03356934 317.71713257 C-118.4809193 317.74412125 -120.92750733 317.75038712 -123.375 317.75 C-124.21586151 317.75139984 -125.05672302 317.75279968 -125.92306519 317.75424194 C-142.32706996 317.73189925 -157.75611946 315.77919109 -173.8125 312.3125 C-174.81071777 312.10431641 -175.80893555 311.89613281 -176.83740234 311.68164062 C-209.75658456 304.73946195 -209.75658456 304.73946195 -217.8125 298.3125 C-222.66510173 286.32648816 -221.89838484 268.10347525 -217.1875 256.125 C-213.15306024 246.78811959 -208.02675844 239.94010535 -198.8125 235.3125 C-193.6615373 233.30394851 -188.51108015 231.96161186 -183.078125 230.98339844 C-165.50075043 227.80560966 -148.68644504 220.93035382 -137.70703125 206.171875 C-125.48980409 187.73267854 -118.9556757 166.87417473 -114.8125 145.3125 C-114.65942383 144.53310059 -114.50634766 143.75370117 -114.34863281 142.95068359 C-110.85951967 124.87394122 -109.71823078 106.65916672 -109.35546875 88.28125 C-109.33998301 87.53411743 -109.32449726 86.78698486 -109.30854225 86.01721191 C-109.16378192 79.02398855 -109.02804751 72.0307322 -108.93432617 65.03662109 C-108.88152094 61.165703 -108.80505225 57.29585838 -108.71337318 53.42567444 C-108.68338892 51.96826137 -108.66222837 50.51063684 -108.65041161 49.05296326 C-108.54313081 36.36524775 -108.54313081 36.36524775 -105.3840332 32.44335938 C-101.83509518 29.50258931 -100.19635286 29.18395798 -95.67382812 29.15136719 C-94.05812927 29.13695587 -94.05812927 29.13695587 -92.40979004 29.12225342 C-90.64460022 29.1158786 -90.64460022 29.1158786 -88.84375 29.109375 C-87.6208728 29.10367493 -86.39799561 29.09797485 -85.13806152 29.09210205 C-82.52857328 29.08262609 -79.91907293 29.07610784 -77.30957031 29.07226562 C-73.41187655 29.0627428 -69.5147531 29.03182498 -65.6171875 29 C-49.14395756 28.93226727 -33.12229108 29.98589318 -16.8125 32.3125 C-16.85084961 31.00861328 -16.88919922 29.70472656 -16.92871094 28.36132812 C-16.95090698 27.58345947 -16.97310303 26.80559082 -16.99597168 26.00415039 C-17.04473886 24.39760744 -17.10539322 22.79141357 -17.17285156 21.18554688 C-17.26267173 14.79382821 -15.78403206 9.52197503 -11.36425781 4.74829102 C-7.54546287 1.36869354 -4.87588 0.54176444 0 0 Z " fill="#070707" transform="translate(850.8125,564.6875)"/>
<path d="M0 0 C2.12199705 0.00852599 4.24130231 -0.02040738 6.36303711 -0.05200195 C15.71401243 -0.1005832 23.79783103 1.30988615 32.68920898 4.44604492 C33.86785522 4.86164673 33.86785522 4.86164673 35.0703125 5.28564453 C58.10916059 13.98169392 74.97657634 30.07859502 85.56420898 52.13354492 C88.30777711 58.55727856 90.5265362 65.19258915 90.87670898 72.19604492 C91.95851576 76.52327201 94.17392529 77.9799402 97.68139648 80.57495117 C103.12358712 85.64656463 103.58557709 92.58842075 104.55639648 99.57104492 C104.79635094 101.20277901 104.79635094 101.20277901 105.04115295 102.86747742 C105.55793841 106.39240769 106.06097349 109.91915729 106.56420898 113.44604492 C107.26685633 118.26570116 107.97630952 123.08434995 108.68530273 127.90307617 C108.85790115 129.08311722 109.03049957 130.26315826 109.20832825 131.47895813 C110.73461986 141.87559357 112.42307436 152.23725457 114.22973633 162.58862305 C115.20217952 168.221014 115.99581571 173.79610418 116.4453125 179.49609375 C116.58898923 181.52289496 116.58898923 181.52289496 117.68920898 183.44604492 C118.16928032 186.80654425 118.47790554 190.06127676 118.68920898 193.44604492 C118.75833496 194.51943115 118.75833496 194.51943115 118.82885742 195.61450195 C119.83117743 213.34532334 119.83117743 213.34532334 114.53295898 220.49291992 C109.90480633 225.39562401 105.69453035 229.09577885 98.68920898 229.44604492 C96.53552019 226.21551174 96.15495986 223.13047925 96.23217773 219.33276367 C96.68920898 217.44604492 96.68920898 217.44604492 99.50170898 215.25854492 C100.55358398 214.66041992 101.60545898 214.06229492 102.68920898 213.44604492 C108.34996649 205.64765871 105.64756411 195.38304018 104.45483398 186.39916992 C104.32436676 185.4092807 104.19389954 184.41939148 104.05947876 183.39950562 C102.42903629 171.23697319 100.56009003 159.11045361 98.67260742 146.9855957 C98.15658375 143.66540165 97.64524429 140.34455588 97.13626671 137.02327919 C96.64467116 133.82246923 96.14709571 130.62258986 95.65014648 127.42260742 C95.46785492 126.23124176 95.28556335 125.0398761 95.0977478 123.81240845 C94.84210556 122.18207169 94.84210556 122.18207169 94.58129883 120.51879883 C94.43268402 119.56002838 94.28406921 118.60125793 94.13095093 117.61343384 C93.90281801 115.47577122 93.90281801 115.47577122 92.68920898 114.44604492 C92.23932617 115.31745117 91.78944336 116.18885742 91.32592773 117.08666992 C80.75817972 136.91135066 64.13331857 150.5051942 42.83374023 157.83666992 C36.65185115 159.71840251 31.14889441 160.96281976 24.68920898 160.44604492 C24.73561523 161.29166992 24.78202148 162.13729492 24.82983398 163.00854492 C25.05087505 169.95554978 25.20407871 175.84042685 20.68920898 181.44604492 C14.46854739 186.39718374 9.54606683 186.65232735 1.93920898 186.69604492 C0.61663086 186.72698242 0.61663086 186.72698242 -0.73266602 186.75854492 C-7.76223368 186.80038759 -12.54411941 185.77256422 -18.06079102 181.13354492 C-23.68443633 174.41641302 -23.68104092 168.92065376 -23.31079102 160.44604492 C-23.87024414 160.42026367 -24.42969727 160.39448242 -25.00610352 160.36791992 C-46.46377891 158.85001362 -64.06446262 148.33793242 -78.68579102 133.13354492 C-82.24056757 129.02070074 -84.98477166 124.82077066 -87.59985352 120.09057617 C-87.96054932 119.4485022 -88.32124512 118.80642822 -88.69287109 118.14489746 C-89.57034058 116.58131377 -90.44126231 115.01405847 -91.31079102 113.44604492 C-92.1526046 117.81917238 -92.9885298 122.19337487 -93.81933594 126.56860352 C-94.10195324 128.05262587 -94.38609575 129.53635869 -94.671875 131.01977539 C-96.82248538 142.15122862 -96.82248538 142.15122862 -98.11425781 153.40966797 C-98.32670059 155.61089183 -98.72709411 157.72111664 -99.18579102 159.88354492 C-100.18329929 164.63463988 -100.98809995 169.4024272 -101.74829102 174.19604492 C-101.87574707 174.99381348 -102.00320313 175.79158203 -102.13452148 176.61352539 C-102.85712786 181.23333468 -103.49806947 185.85520634 -104.06469727 190.49682617 C-104.18981689 191.49810547 -104.31493652 192.49938477 -104.44384766 193.53100586 C-104.68525367 195.48987991 -104.91523477 197.45020157 -105.1328125 199.41186523 C-105.24310791 200.30099609 -105.35340332 201.19012695 -105.46704102 202.10620117 C-105.60335938 203.29161499 -105.60335938 203.29161499 -105.74243164 204.50097656 C-106.31079102 206.44604492 -106.31079102 206.44604492 -109.31079102 208.44604492 C-112.87329102 208.69604492 -112.87329102 208.69604492 -116.31079102 208.44604492 C-119.05992204 205.6969139 -118.61025329 204.10467318 -118.62329102 200.25854492 C-118.52827938 193.97510906 -117.6192139 188.256114 -116.25170898 182.13989258 C-115.09186192 176.62092053 -114.33458464 171.0507063 -113.54125977 165.46948242 C-111.42453654 150.92139123 -109.06809802 136.42128856 -106.58398438 121.93212891 C-106.10232655 119.11724978 -105.6310532 116.30090341 -105.16796875 113.48291016 C-104.59544798 109.99955129 -104.00560148 106.51954 -103.40342522 103.04118919 C-103.07469093 101.11779809 -102.76297293 99.19152281 -102.45179749 97.26521301 C-100.98563977 88.95063571 -99.07193716 82.14492961 -92.12719727 76.91870117 C-88.67626121 73.8889612 -88.02880158 71.2190817 -87.24829102 66.88354492 C-86.93757186 65.4497208 -86.61978266 64.0174117 -86.29516602 62.58666992 C-86.1359668 61.88348633 -85.97676758 61.18030273 -85.81274414 60.45581055 C-80.6011353 39.58909654 -64.38364007 22.69630432 -46.49829102 11.75854492 C-31.84995832 3.53524818 -16.70613555 -0.10190185 0 0 Z " fill="#060606" transform="translate(540.310791015625,555.553955078125)"/>
<path d="M0 0 C7.6098531 3.86088135 13.74124192 9.29675299 20 15 C23.65235294 18.23225074 23.65235294 18.23225074 28.26171875 18.90625 C30.67074322 18.59584029 30.67074322 18.59584029 32.94921875 18.06640625 C35 18 35 18 36.7265625 19.265625 C38.51786304 21.7053104 38.67073928 24.03665348 39 27 C41.8371515 28.19595537 41.8371515 28.19595537 45 29 C45.99 28.34 46.98 27.68 48 27 C53.44444444 27.44444444 53.44444444 27.44444444 56 30 C56.71927295 32.31765729 57.3909893 34.65095874 58 37 C59.65614657 37.38218767 61.32457024 37.71395102 63 38 C63.33 37.67 63.66 37.34 64 37 C70.6 37.6 70.6 37.6 73 40 C73.185625 41.2375 73.185625 41.2375 73.375 42.5 C73.73077025 45.10220159 73.73077025 45.10220159 75.7578125 46.1953125 C78.39233746 47.14080404 79.78196639 46.92419172 82.5 46.375 C86.68049336 45.78959319 86.68049336 45.78959319 89.5625 47.6875 C91 50 91 50 91 54 C95.2157748 55.18337538 98.41349175 56.01922978 102.8125 55.875 C106 56 106 56 107.9375 57.875 C109 60 109 60 109 62 C110.258125 62.268125 111.51625 62.53625 112.8125 62.8125 C128.24808282 66.24808282 128.24808282 66.24808282 130 68 C130.07226502 69.85287502 130.0838122 71.70833878 130.0625 73.5625 C130.05347656 74.57441406 130.04445313 75.58632813 130.03515625 76.62890625 C130.01775391 77.80259766 130.01775391 77.80259766 130 79 C123.96097248 79.38804996 119.33909808 78.04507706 113.6875 76 C112.08810042 75.43505695 110.48787713 74.87243882 108.88671875 74.3125 C108.18764404 74.06113281 107.48856934 73.80976562 106.76831055 73.55078125 C104.99043079 72.90087277 104.99043079 72.90087277 103 73 C101.44100063 75.2159833 101.44100063 75.2159833 99.9375 77.9375 C97.05960265 82.94039735 97.05960265 82.94039735 96 84 C90.75949367 84.4556962 90.75949367 84.4556962 88.125 82.875 C86.38829519 79.98049198 86.49494059 78.34601861 87 75 C88.46216871 72.18227904 90.16240092 69.58576441 92 67 C91.2575 66.87625 90.515 66.7525 89.75 66.625 C87.19858515 66.04513299 85.2732427 65.26291261 83 64 C82.6596875 65.051875 82.6596875 65.051875 82.3125 66.125 C80.60220579 69.87135874 78.96644161 72.10097751 76 75 C72.69923877 75.59413702 71.00069903 75.54877044 68.0625 73.9375 C66.28229667 70.69124687 67.06612609 68.50202716 68 65 C69.4987962 62.46924576 71.15969627 60.31217649 73 58 C70.69 57.34 68.38 56.68 66 56 C65.43410156 56.71027344 64.86820313 57.42054688 64.28515625 58.15234375 C63.55167969 59.07144531 62.81820312 59.99054687 62.0625 60.9375 C61.33160156 61.85402344 60.60070312 62.77054688 59.84765625 63.71484375 C57.20990018 66.97718476 57.20990018 66.97718476 54.125 67.3125 C51 67 51 67 49.0625 65.3125 C47.69404657 62.33410135 48.10875254 61.12396018 49 58 C50.41015625 55.54296875 50.41015625 55.54296875 52.0625 53.1875 C52.61035156 52.39730469 53.15820312 51.60710938 53.72265625 50.79296875 C54.14417969 50.20128906 54.56570313 49.60960937 55 49 C52.36 48.34 49.72 47.68 47 47 C46.41992188 47.721875 45.83984375 48.44375 45.2421875 49.1875 C44.46101562 50.115625 43.67984375 51.04375 42.875 52 C42.10929688 52.928125 41.34359375 53.85625 40.5546875 54.8125 C38 57 38 57 34.81640625 57.41796875 C32 57 32 57 30.0625 55.3125 C29 53 29 53 29 50.625 C30.35793629 47.06041724 32.50342855 44.88065937 35 42 C35 41.34 35 40.68 35 40 C32.85253838 38.69618402 31.57323893 37.93504052 29.03515625 38.22265625 C26.50630596 39.18857028 25.74283378 40.3126718 24.1875 42.5 C21.80369948 45.44042399 21.1360556 45.95849151 17.3125 47.125 C14 47 14 47 12.0625 45.9375 C10.47179385 43.03680056 10.47826669 41.2608332 11 38 C13.5 35.25 13.5 35.25 16 33 C16 32.34 16 31.68 16 31 C11.89551363 29.83835291 9.41324205 29.38939313 5.44140625 31.10546875 C-0.5440057 34.76273788 -5.57928283 39.21879704 -10.65478516 44.00512695 C-14.82668823 47.91993226 -19.01110419 51.20442055 -24 54 C-24.68449219 54.41121094 -25.36898437 54.82242188 -26.07421875 55.24609375 C-35.28925504 59.89381711 -47.71691765 59.4900862 -57.57421875 57.15234375 C-67.26330962 53.41602766 -75.66359636 47.1760047 -82 39 C-82.66 39 -83.32 39 -84 39 C-84.84212256 40.91282125 -85.67338864 42.83042473 -86.5 44.75 C-87.19609375 46.35101562 -87.19609375 46.35101562 -87.90625 47.984375 C-89.22730717 51.09207716 -89.22730717 51.09207716 -89 55 C-88.34515625 55.15855469 -87.6903125 55.31710937 -87.015625 55.48046875 C-71.96028964 59.32936098 -56.02077253 65.6188029 -47 79 C-43.19036898 85.54089781 -40.77018638 91.68842181 -39 99 C-22.96887658 99.04704905 -6.9377761 99.082148 9.0934 99.10362434 C16.53958529 99.1138682 23.98572729 99.12779385 31.43188477 99.15087891 C37.93386094 99.17102687 44.43580573 99.18376625 50.93781227 99.18817699 C54.36975528 99.19074881 57.80160862 99.196643 61.23352242 99.21146011 C82.20188555 99.29179304 102.73373207 98.58817029 123.3671875 94.671875 C133.32105081 92.83094544 133.32105081 92.83094544 137 93 C139.49505962 95.49505962 139.35948376 96.67328888 139.625 100.125 C139.73714844 101.49011719 139.73714844 101.49011719 139.8515625 102.8828125 C139.90054688 103.58148437 139.94953125 104.28015625 140 105 C138.31583984 105.29003906 138.31583984 105.29003906 136.59765625 105.5859375 C125.24591867 107.53167373 125.24591867 107.53167373 114 110 C112.948125 110.226875 111.89625 110.45375 110.8125 110.6875 C103.98997727 113.87134394 101.1091912 120.51679689 98 127 C102.98117692 126.18638736 107.96160233 125.36836129 112.94140625 124.54638672 C114.632617 124.26785334 116.32402073 123.99048885 118.015625 123.71435547 C120.45886104 123.31531279 122.90135282 122.91195398 125.34375 122.5078125 C126.08991577 122.3868924 126.83608154 122.26597229 127.6048584 122.14138794 C132.47873783 121.32941549 137.21960729 120.25178268 142 119 C141.71917202 121.34023315 141.37531446 123.67305036 141 126 C140.835 127.0725 140.67 128.145 140.5 129.25 C138.47256959 132.96695576 136.60997032 133.09149706 132.70117188 134.29492188 C127.85388782 135.56019269 122.94566971 136.35030236 118 137.125 C116.97132813 137.29386719 115.94265625 137.46273437 114.8828125 137.63671875 C93.09273959 141.15750661 71.14944358 141.17394362 49.125 141.125 C47.87659332 141.1234491 46.62818665 141.12189819 45.34194946 141.12030029 C34.56116527 141.10513405 23.7806344 141.05746659 13 141 C11.99339577 140.99468262 10.98679153 140.98936523 9.94968414 140.98388672 C-5.10022417 140.90328682 -20.14988663 140.80156122 -35.19952393 140.68060303 C-39.93530422 140.64270281 -44.6710864 140.60895622 -49.40692139 140.57867432 C-55.05785384 140.54207362 -60.70862691 140.49568288 -66.35942268 140.44206238 C-68.46491956 140.42358948 -70.57044784 140.40837207 -72.67599297 140.3966217 C-75.58925054 140.37971665 -78.5021563 140.35073329 -81.4152832 140.31884766 C-82.25812803 140.3166881 -83.10097286 140.31452854 -83.96935844 140.31230354 C-92.09674149 140.19855972 -99.5582319 139.34195403 -106 134 C-108.27978487 130.56210579 -108.24503459 127.5811145 -108.23046875 123.51953125 C-108.22853516 122.27365234 -108.22660156 121.02777344 -108.22460938 119.74414062 C-108.21236328 118.44669922 -108.20011719 117.14925781 -108.1875 115.8125 C-108.18685547 114.50345703 -108.18621094 113.19441406 -108.18554688 111.84570312 C-108.14021767 102.14021767 -108.14021767 102.14021767 -107 101 C-106.94886805 99.19864033 -106.96474139 97.39532043 -107.0078125 95.59375 C-107.36783849 74.32183452 -106.91313569 44.39325651 -91.53125 27.375 C-89.03016314 25.45927389 -86.70298482 24.95049747 -83.625 24.4375 C-77.00489297 25.46475799 -72.80182167 28.82922749 -68.625 33.9375 C-64.25098218 39.25888574 -58.52077041 42.82640986 -52 45 C-41.30257261 45.99709709 -33.04859178 44.23460666 -23.85351562 38.71044922 C-21.79443938 37.16276926 -21.79443938 37.16276926 -21.64111328 34.79858398 C-21.70024902 33.95626221 -21.75938477 33.11394043 -21.8203125 32.24609375 C-21.88677979 30.84701782 -21.88677979 30.84701782 -21.95458984 29.41967773 C-22.0108252 28.43555908 -22.06706055 27.45144043 -22.125 26.4375 C-22.34582228 18.88379207 -22.50462683 13.03122989 -17.7265625 6.78125 C-12.20524958 1.08505386 -8.19242732 -2.35399292 0 0 Z " fill="#060606" transform="translate(273,711)"/>
<path d="M0 0 C0.54156738 0.47630859 1.08313477 0.95261719 1.64111328 1.44335938 C7.52957022 6.54841271 12.47567254 7.01497941 20.125 6.875 C21.23286865 6.86637939 22.3407373 6.85775879 23.48217773 6.84887695 C33.3728071 6.49763179 39.09179075 3.7215554 47 -2 C65.44006548 -11.34943671 89.54324385 -8.1297838 108.875 -3.6875 C109.55429565 -3.53306427 110.23359131 -3.37862854 110.93347168 -3.21951294 C123.59870559 -0.28847196 123.59870559 -0.28847196 127 3 C127.97302074 8.08597346 127.83292733 12.9207765 127 18 C125.41707606 20.15853264 123.76687848 21.45148929 121.66796875 23.09375 C118.68182479 26.50648595 119.00488095 30.84657745 118.59375 35.21484375 C117.74268665 40.64037264 115.65464674 45.09251527 113.33984375 50.0390625 C111.69255781 53.40864629 111.69255781 53.40864629 111 57 C112.42273556 59.24376085 112.42273556 59.24376085 114.4375 61.375 C117.92800209 65.60401152 117.92800209 65.60401152 118.625 69.4375 C118 72 118 72 115 74 C112.55078125 74.375 112.55078125 74.375 110 74 C107.98046875 72.25 107.98046875 72.25 106.1875 70 C105.58292969 69.2575 104.97835937 68.515 104.35546875 67.75 C103.90816406 67.1725 103.46085938 66.595 103 66 C99.75250963 66.54776946 97.18233954 67.2688859 94.3125 68.875 C83.52823693 74.39815529 73.13353134 75.64311606 61.375 72.4375 C49.53572356 68.39206026 40.09578132 60.27493934 34.25 49.1875 C30.96427768 42.03883387 28.10015933 34.68923061 27.375 26.8125 C27.25125 25.554375 27.1275 24.29625 27 23 C24.01405576 21.50702788 21.29146376 21.88244772 18 22 C17.34 22.33 16.68 22.66 16 23 C15.55951738 25.17526006 15.20008564 27.36702725 14.875 29.5625 C12.77031616 41.58572507 7.11571113 53.70062121 -2 62 C-3.01513672 62.93392578 -3.01513672 62.93392578 -4.05078125 63.88671875 C-10.85811629 69.6542122 -19.05474608 73.23870179 -28 74 C-28.70125 74.06316406 -29.4025 74.12632812 -30.125 74.19140625 C-38.50158208 74.60755055 -47.68472996 72.68476583 -54.5625 67.6875 C-56.78994622 65.83386601 -56.78994622 65.83386601 -59.0625 65.875 C-61.3179788 67.02125996 -61.3179788 67.02125996 -63.3125 70 C-65.43866337 72.71676431 -66.01686383 73.00532542 -69.5625 74.125 C-73 74 -73 74 -75.5 72.3125 C-77 70 -77 70 -76.82421875 68.1640625 C-75.41414252 64.46177704 -72.74974404 61.61181435 -70.30078125 58.53515625 C-68.68913663 56.09000399 -68.68913663 56.09000399 -69.63671875 53.59375 C-70.08660156 52.7378125 -70.53648437 51.881875 -71 51 C-73.64962977 44.19758512 -76.06440703 37.70633769 -77 30.4375 C-77.50500515 26.76027804 -77.90002283 24.46739177 -80.5625 21.8125 C-81.366875 21.214375 -82.17125 20.61625 -83 20 C-85.11860891 17.88139109 -84.32270498 13.53450493 -84.375 10.625 C-84.41238281 9.84382812 -84.44976562 9.06265625 -84.48828125 8.2578125 C-84.49988281 7.505 -84.51148438 6.7521875 -84.5234375 5.9765625 C-84.54325684 5.28643066 -84.56307617 4.59629883 -84.58349609 3.88525391 C-84 2 -84 2 -81.86889648 0.35180664 C-76.44312801 -2.20478259 -70.54546933 -3.06200026 -64.6875 -4.1875 C-64.00003693 -4.32106903 -63.31257385 -4.45463806 -62.60427856 -4.59225464 C-42.26476728 -8.47489019 -18.87638497 -10.33139682 0 0 Z " fill="#060606" transform="translate(500,777)"/>
<path d="M0 0 C7.92 0 15.84 0 24 0 C23.02165072 15.37267631 21.9755433 30.73411752 20.7109375 46.0859375 C20.60050384 47.43734922 20.49017308 48.78876935 20.37994385 50.14019775 C19.93455069 55.59184394 19.48881197 61.04342181 19.02636719 66.49365234 C17.87567961 80.09588411 16.78594075 93.69562019 16.6015625 107.3515625 C16.57701996 108.29083588 16.55247742 109.23010925 16.52719116 110.19784546 C16.52370881 117.3294672 17.85281364 124.47612061 22.73989868 129.94815063 C28.29920368 135.03014712 32.98421275 136.2267495 40.40234375 136.16796875 C43.31570512 135.97958598 46.12462986 135.49600939 49 135 C49.29975154 139.78257425 49.51570045 144.55955018 49.65917969 149.34936523 C49.71903615 150.97273043 49.80057012 152.59546218 49.90527344 154.21655273 C50.72905614 167.3122748 50.72905614 167.3122748 47.89019775 171.72512817 C45.53820295 174.37406998 42.87645549 176.50601095 40.06054688 178.64086914 C35.92489298 181.82871403 33.27119429 185.52356842 30.375 189.8125 C29.8377832 190.57949219 29.30056641 191.34648438 28.74707031 192.13671875 C27.15211355 194.41603975 25.57481402 196.70673412 24 199 C3.37129339 228.73384055 3.37129339 228.73384055 -15 233 C-18.88502492 233.41482593 -22.72080806 233.42679891 -26.625 233.375 C-28.29997559 233.36194824 -28.29997559 233.36194824 -30.00878906 233.34863281 C-56.6626515 232.9008538 -83.3924593 229.49878139 -109 222 C-108.53974264 217.56868496 -108.09531785 214.32859995 -105.375 210.75 C-104.67503906 209.78320312 -104.67503906 209.78320312 -103.9609375 208.796875 C-98.65381785 203.93377731 -91.3109748 203.07843226 -84.5 201.6875 C-63.06031205 197.03411722 -43.05539482 188.21436639 -30.33227539 169.49926758 C-12.69004101 142.05275139 -7.04685875 109.47535573 -3.375 77.625 C-3.2517334 76.57481689 -3.1284668 75.52463379 -3.00146484 74.44262695 C-1.04481261 56.6176063 -0.80164237 38.66283213 -0.4375 20.75 C-0.39414026 18.72134859 -0.35052163 16.6927027 -0.30664062 14.6640625 C-0.20098734 9.77610284 -0.10058652 4.88807682 0 0 Z " fill="#FBFBFB" transform="translate(755,606)"/>
<path d="M0 0 C14.32727418 10.95742972 23.00375555 24.77297222 27.38671875 42.15625 C27.56396484 42.77902832 27.74121094 43.40180664 27.92382812 44.04345703 C28.42473281 46.32975934 28.50017846 48.36421225 28.484375 50.703125 C28.48115234 51.54746094 28.47792969 52.39179688 28.47460938 53.26171875 C28.46623047 54.13441406 28.45785156 55.00710937 28.44921875 55.90625 C28.44470703 56.79441406 28.44019531 57.68257813 28.43554688 58.59765625 C28.42379275 60.78392329 28.40736124 62.97005179 28.38671875 65.15625 C26.24095238 65.18310938 24.0950923 65.20258088 21.94921875 65.21875 C20.75425781 65.23035156 19.55929687 65.24195313 18.328125 65.25390625 C15.38671875 65.15625 15.38671875 65.15625 14.38671875 64.15625 C14.29152523 62.18045565 14.20251912 60.20413326 14.14770508 58.22680664 C13.89644724 49.86517951 13.10728036 42.77454282 9.38671875 35.15625 C8.92910156 34.21136719 8.47148438 33.26648438 8 32.29296875 C1.20971709 19.12231503 -8.69074054 10.46330599 -22.61328125 5.15625 C-23.27924316 4.89038086 -23.94520508 4.62451172 -24.63134766 4.35058594 C-30.60727089 2.13499874 -36.01911841 1.64949663 -42.36328125 1.71875 C-43.32903076 1.72559814 -44.29478027 1.73244629 -45.28979492 1.73950195 C-53.01285524 1.91230486 -59.49485775 2.99712482 -66.61328125 6.15625 C-67.40347656 6.506875 -68.19367188 6.8575 -69.0078125 7.21875 C-84.34413829 14.95405968 -93.6012948 27.37328726 -99.36328125 43.21875 C-103.82654638 59.08813714 -99.98485923 74.60925803 -92.92578125 88.96875 C-82.31843118 107.06838025 -60.8990205 114.64410253 -42.92578125 123.53125 C-38.96210368 125.49450955 -34.99980882 127.46052095 -31.0390625 129.4296875 C-30.0619632 129.9154425 -29.08486389 130.40119751 -28.07815552 130.90167236 C-22.12504191 133.87209142 -16.21814958 136.91618713 -10.34375 140.0390625 C1.78024381 146.48075812 14.09373313 152.54537428 26.38671875 158.65625 C52.91854795 171.84529258 52.91854795 171.84529258 65.73803711 178.6529541 C73.13448838 182.57424092 80.61763873 186.31251966 88.11767578 190.03088379 C98.97215237 195.41432578 109.80513972 200.82091649 120.4921875 206.53125 C128.00004139 210.52449834 135.62149441 214.28962802 143.23522949 218.07537842 C151.14722994 222.01141079 159.00689175 226.02562936 166.80249023 230.1875 C173.91086984 233.95715282 181.11648978 237.52413056 188.3230896 241.1008606 C222.09573552 257.86526677 222.09573552 257.86526677 225.38671875 261.15625 C225.32550891 263.1846173 225.25988949 265.21297168 225.16918945 267.24023438 C224.61840879 276.20310983 224.61840879 276.20310983 228.19921875 284.15625 C230.70813851 286.83243108 233.11438283 288.9637788 236.83984375 289.52734375 C242.35319464 289.65824733 246.53453483 289.54842699 250.8828125 285.93359375 C253.83429606 282.44547682 255.62405032 278.33954143 257.38671875 274.15625 C261.95799775 274.70480348 266.0610767 275.57369803 270.38671875 277.15625 C269.74488852 285.28609962 265.95125831 292.08212222 260.07421875 297.59375 C252.38772652 303.82094092 245.98725871 304.80460005 236.078125 304.55859375 C227.33088841 303.60519124 221.56265321 299.308781 216.078125 292.60546875 C212.00163383 286.70255891 210.24158837 281.78844951 210.82421875 274.65625 C210.77876553 271.79338295 210.77876553 271.79338295 209.38671875 269.15625 C204.8201722 265.25552942 198.89749929 263.03149561 193.47802734 260.57958984 C188.32207865 258.205622 183.26993191 255.62541154 178.20236206 253.06951904 C176.37500989 252.15036044 174.54465785 251.23747657 172.71313477 250.32666016 C166.10169818 247.03788943 159.52760266 243.69310821 153.01171875 240.21875 C144.87711239 235.88223355 136.63955764 231.76137376 128.38671875 227.65625 C120.25893933 223.61328699 112.14443964 219.55894194 104.13671875 215.28125 C93.92641288 209.8295087 83.54912395 204.70921982 73.17871094 199.57080078 C65.76044358 195.88799848 58.39249336 192.12807612 51.07421875 188.25 C41.26039796 183.05164948 31.33549541 178.09016481 21.38671875 173.15625 C11.78168261 168.39280705 2.19571243 163.61426988 -7.265625 158.5703125 C-15.23678844 154.33080086 -23.30502081 150.3018272 -31.40001297 146.30590057 C-33.55874279 145.2401855 -35.71665828 144.17283817 -37.87435913 143.1050415 C-46.78410491 138.69666006 -46.78410491 138.69666006 -55.7043457 134.30957031 C-59.39499408 132.49963932 -63.07948073 130.67766396 -66.76032829 128.84788895 C-68.14262471 128.16345137 -69.5270551 127.48330331 -70.91378975 126.80790329 C-90.28028997 117.36933931 -104.9592694 103.66900176 -112.61328125 83.15625 C-112.91363281 82.36863281 -113.21398437 81.58101563 -113.5234375 80.76953125 C-118.53341485 64.80751039 -117.06400424 46.4164091 -110.61328125 31.15625 C-110.24074219 30.24101562 -109.86820312 29.32578125 -109.484375 28.3828125 C-101.08507101 9.82825247 -85.37263213 -3.18587647 -66.61328125 -10.28125 C-44.50831019 -17.98345085 -18.78603933 -13.2541264 0 0 Z " fill="#060606" transform="translate(565.61328125,166.84375)"/>
<path d="M0 0 C0.71353638 -0.0038269 1.42707275 -0.00765381 2.16223145 -0.01159668 C3.66497211 -0.01430847 5.16776056 -0.00699854 6.67041016 0.00976562 C8.96233987 0.03119008 11.25113579 0.00994361 13.54296875 -0.015625 C15.00781937 -0.01298159 16.47266806 -0.00785632 17.9375 0 C18.95801453 -0.01214539 18.95801453 -0.01214539 19.99914551 -0.02453613 C23.2367287 0.03883473 25.44413605 0.51858714 28.33081055 2.00366211 C31.38212885 5.61109598 31.64842152 8.9040651 32.20703125 13.50390625 C32.47286872 15.30930942 32.73915963 17.11464588 33.00585938 18.91992188 C33.39733649 21.74671388 33.7787204 24.57442805 34.14916992 27.40405273 C36.02557791 42.08000957 36.02557791 42.08000957 43.68969727 54.42773438 C45.53355692 56.60787638 46.27173572 58.26151369 47.09375 60.96875 C48.12271515 64.7942528 48.12271515 64.7942528 51.65625 66.21875 C54.46875 68.53125 54.46875 68.53125 54.85546875 71.66015625 C54.84475859 74.96959563 54.72617735 78.23236618 54.46875 81.53125 C53.55222656 81.88703125 52.63570312 82.2428125 51.69140625 82.609375 C47.67428847 85.00503797 46.7917886 87.04673921 44.90625 91.28125 C43.1554504 95.16071962 41.61000727 98.44262748 38.94799805 101.75292969 C36.16123561 105.6056037 35.48078898 108.96314602 34.9921875 113.625 C34.89539703 114.37535522 34.79860657 115.12571045 34.69888306 115.89880371 C34.39481661 118.27438267 34.11740572 120.65199241 33.84375 123.03125 C33.55953687 125.40984319 33.26932421 127.78731041 32.9671936 130.16369629 C32.78117068 131.63489852 32.60563407 133.10748092 32.44271851 134.5814209 C31.84472359 139.42032526 30.54018764 143.17675715 28.46875 147.53125 C23.13029426 147.65493107 17.79267376 147.74562609 12.453125 147.8059082 C10.63722201 147.831039 8.82142004 147.86514961 7.00585938 147.90844727 C4.39427777 147.96916511 1.78403406 147.99747281 -0.828125 148.01953125 C-1.63868347 148.04533768 -2.44924194 148.0711441 -3.28436279 148.09773254 C-7.00785403 148.09958162 -9.07306913 147.90800785 -11.98901367 145.51025391 C-13.88483857 141.84825368 -14.47852503 138.42148573 -14.91015625 134.37890625 C-15.00836166 133.60115341 -15.10656708 132.82340057 -15.20774841 132.02207947 C-15.51873669 129.5475906 -15.80807596 127.07127924 -16.09375 124.59375 C-16.38489083 122.1201384 -16.68101479 119.64752333 -16.99046326 117.1761322 C-17.18197515 115.64261905 -17.36296437 114.10774207 -17.53163147 112.57154846 C-18.30722336 106.29168359 -20.33224761 101.69774875 -24.46875 96.96875 C-30.61503419 88.93719659 -32.73197615 78.46318237 -31.53125 68.53125 C-29.99569413 60.23163397 -26.17434164 52.56126916 -20.50610352 46.29101562 C-18.19922318 43.06725802 -17.80163952 40.96385512 -17.3359375 37.05078125 C-17.17738281 35.80361328 -17.01882813 34.55644531 -16.85546875 33.27148438 C-16.70722656 31.97533203 -16.55898438 30.67917969 -16.40625 29.34375 C-15.8027204 24.40328661 -15.18392889 19.46547444 -14.53125 14.53125 C-14.40395508 13.53657715 -14.27666016 12.5419043 -14.14550781 11.51708984 C-14.00725586 10.63875488 -13.86900391 9.76041992 -13.7265625 8.85546875 C-13.61586426 8.10740967 -13.50516602 7.35935059 -13.39111328 6.58862305 C-10.88782637 0.59907199 -5.8430161 -0.06953912 0 0 Z " fill="#070706" transform="translate(678.53125,544.46875)"/>
<path d="M0 0 C0.66959246 -0.00623996 1.33918491 -0.01247993 2.02906805 -0.01890898 C4.2717363 -0.03485807 6.51332049 -0.02222838 8.7559967 -0.00964355 C10.36422357 -0.01506392 11.97244548 -0.0221861 13.58065796 -0.03088379 C17.94850975 -0.04913189 22.31598396 -0.0420432 26.68384242 -0.02936745 C31.25392985 -0.01924569 35.82398479 -0.02863099 40.39407349 -0.03491211 C48.07011218 -0.04219166 55.74599699 -0.03259353 63.42201233 -0.0135498 C72.29599949 0.00821181 81.16961894 0.00117404 90.04359716 -0.02085543 C97.66155931 -0.03900992 105.27941077 -0.04156728 112.89738756 -0.03110075 C117.44766393 -0.02486508 121.9977675 -0.02403201 126.54803276 -0.0372467 C130.8269807 -0.04880506 135.10545494 -0.04077997 139.38435173 -0.01766968 C140.95449029 -0.01238214 142.52466874 -0.01389718 144.09479141 -0.02272034 C146.23910608 -0.03365873 148.38190488 -0.01993562 150.52612305 0 C151.7257112 0.0015081 152.92529936 0.0030162 154.16123867 0.00457001 C157.97908109 0.61170288 159.67386242 1.72748333 162.32655334 4.50793457 C162.84548983 18.77868779 152.64190694 34.39038005 143.32655334 44.50793457 C132.21137012 54.89210237 115.13577041 65.50793457 99.32655334 65.50793457 C99.31237366 64.72289551 99.29819397 63.93785645 99.28358459 63.12902832 C98.97781809 54.90875438 98.97781809 54.90875438 95.00917053 47.96691895 C89.41465272 43.11595573 81.29593717 43.01125269 74.26405334 43.07043457 C73.41778381 43.0504541 72.57151428 43.03047363 71.69960022 43.0098877 C65.83045223 43.01441287 61.16922409 44.06568455 56.32655334 47.50793457 C52.14547579 52.8682904 51.59569283 57.81981829 51.32655334 64.50793457 C34.51496084 63.15216098 21.31995926 56.33619893 9.32655334 44.50793457 C8.62917053 43.88273926 7.93178772 43.25754395 7.21327209 42.61340332 C-2.34238819 33.79993024 -10.27272816 20.73723747 -11.17344666 7.50793457 C-10.08338912 0.96758936 -6.04848718 0.00760645 0 0 Z " fill="#FBFCFB" transform="translate(465.67344665527344,639.4920654296875)"/>
<path d="M0 0 C5.7261081 3.53313053 7.10386193 9.86764871 9 16 C9.38671875 17.20527344 9.7734375 18.41054688 10.171875 19.65234375 C13.44213602 30.32549015 13.44213602 30.32549015 12 35 C10.8125 36.875 10.8125 36.875 9 38 C5.82372678 37.93382764 3.82225969 37.78843924 1.48046875 35.54296875 C-0.74713187 31.71666795 -1.63126081 27.65101364 -2.6875 23.375 C-3.02491211 22.06789063 -3.02491211 22.06789063 -3.36914062 20.734375 C-5 14.32990597 -5 14.32990597 -5 12 C-10.61 14.97 -16.22 17.94 -22 21 C-21.17863999 25.10680007 -20.23583201 27.99617508 -18.5625 31.75 C-15.06252505 40.10543153 -13.83504207 47.04072502 -13.75 56.0625 C-13.7358606 57.19679443 -13.7358606 57.19679443 -13.72143555 58.35400391 C-13.76856433 66.5259578 -15.98601872 73.35722234 -19.29296875 80.80078125 C-20.2830616 83.13649857 -20.2830616 83.13649857 -19 86 C-17.03503199 87.69238861 -15.07028351 89.25894396 -13 90.8125 C-11.72257437 91.7937739 -10.44659796 92.77693651 -9.171875 93.76171875 C-8.49447266 94.28427246 -7.81707031 94.80682617 -7.11914062 95.34521484 C2.08909025 102.53569743 11.06910868 110.03031829 19.6796875 117.92578125 C23.11148307 120.9935985 26.70327519 123.85545858 30.28125 126.75 C32.92147729 128.93501569 35.4672972 131.19171391 38 133.5 C42.25001973 137.3685219 46.63684171 141.0204119 51.10546875 144.6328125 C53.61350497 146.68391905 56.08098093 148.77424332 58.53710938 150.88696289 C66.08003504 157.36177132 73.91898014 163.40623034 81.85791016 169.38574219 C83.92342001 170.94229008 85.98365725 172.50557789 88.04296875 174.0703125 C95.78236596 179.93216638 103.62299223 185.62429125 111.59375 191.16821289 C112.27179688 191.64121826 112.94984375 192.11422363 113.6484375 192.6015625 C114.24833496 193.01744629 114.84823242 193.43333008 115.46630859 193.86181641 C117 195 117 195 119 197 C118.81656833 199.75147505 117.94411376 201.07658485 116.3125 203.3125 C114 205 114 205 111.421875 204.9765625 C106.58128718 203.5951162 103.01109531 200.96027515 98.9375 198.0625 C98.09550049 197.4742041 97.25350098 196.8859082 96.38598633 196.27978516 C89.42918609 191.38605434 82.66984654 186.27853848 76 181 C74.89792786 180.14221008 73.79504269 179.28546385 72.69140625 178.4296875 C64.66696129 172.19176515 56.8038353 165.76816256 48.9765625 159.28515625 C45.73487198 156.60060734 42.46539708 153.9527658 39.1875 151.3125 C34.79752005 147.73277354 30.62970415 143.94241172 26.48144531 140.08959961 C21.50734034 135.4929793 16.28187323 131.23769338 11 127 C5.72772387 122.72060507 0.47820758 118.4200062 -4.68701172 114.01196289 C-10.18845561 109.31780507 -15.77858835 104.7755697 -21.48754883 100.33642578 C-26.22697185 96.63885588 -30.87139011 92.83505957 -35.5 89 C-42.90144314 82.87113866 -50.3967958 76.87662158 -58 71 C-58.74636719 70.40574219 -59.49273437 69.81148437 -60.26171875 69.19921875 C-61.92240588 67.81071246 -61.92240588 67.81071246 -64 68 C-66.40857518 70.54003575 -68.44653358 73.40189512 -70.5625 76.1875 C-71.16513672 76.95642578 -71.76777344 77.72535156 -72.38867188 78.51757812 C-72.96294922 79.26845703 -73.53722656 80.01933594 -74.12890625 80.79296875 C-74.91890015 81.82200317 -74.91890015 81.82200317 -75.72485352 82.87182617 C-77.17335587 85.28932474 -77.72128823 87.20214025 -78 90 C-76.63973392 91.98501214 -76.63973392 91.98501214 -74.4375 93.625 C-73.60089844 94.3159375 -72.76429688 95.006875 -71.90234375 95.71875 C-70.94457031 96.4715625 -69.98679688 97.224375 -69 98 C-67.97003906 98.8146875 -66.94007813 99.629375 -65.87890625 100.46875 C-64.16090401 101.82209747 -62.4401548 103.17156717 -60.71411133 104.51464844 C-55.95201635 108.22360595 -51.27634712 112.0283163 -46.625 115.875 C-39.01507384 122.16750791 -31.37184834 128.41684133 -23.6953125 134.62792969 C-22.25385172 135.79454973 -20.81422835 136.96343947 -19.375 138.1328125 C-15.49901815 141.26240596 -11.58033972 144.3266867 -7.61328125 147.33984375 C-6.8339624 147.93216797 -6.05464355 148.52449219 -5.25170898 149.13476562 C-3.68198175 150.32540414 -2.10991747 151.51296852 -0.53540039 152.69726562 C0.18010986 153.23931641 0.89562012 153.78136719 1.6328125 154.33984375 C2.28137207 154.82831787 2.92993164 155.31679199 3.59814453 155.82006836 C4.29206299 156.40413452 4.29206299 156.40413452 5 157 C5 157.33 5 157.66 5 158 C4.26394531 158.06058594 3.52789062 158.12117187 2.76953125 158.18359375 C1.79371094 158.26738281 0.81789063 158.35117187 -0.1875 158.4375 C-1.15042969 158.51871094 -2.11335938 158.59992188 -3.10546875 158.68359375 C-5.97476332 158.91521851 -5.97476332 158.91521851 -8.5625 159.73046875 C-11.98963986 160.10943133 -13.11907202 158.97035972 -15.8125 156.875 C-16.7715625 156.13636719 -17.730625 155.39773438 -18.71875 154.63671875 C-19.81463846 153.76048035 -20.90824879 152.88138786 -22 152 C-22.91265625 151.26644287 -22.91265625 151.26644287 -23.84375 150.51806641 C-27.22755004 147.79175372 -30.59595234 145.04722468 -33.95703125 142.29296875 C-37.60094554 139.31331418 -41.2886321 136.39495206 -45 133.5 C-55.62909428 125.19687691 -66.05605425 116.63635858 -76.4609375 108.0546875 C-78.21441647 106.63571837 -79.99238753 105.24667501 -81.7890625 103.8828125 C-90.42494444 97.28768652 -90.42494444 97.28768652 -92 92 C-92.91714891 84.79383 -89.75912222 80.35803389 -85.625 74.81640625 C-84.75401269 73.72854592 -83.87882782 72.64403625 -83 71.5625 C-82.02066993 70.33580395 -81.04286229 69.10789127 -80.06640625 67.87890625 C-79.56254395 67.24484863 -79.05868164 66.61079102 -78.53955078 65.95751953 C-75.95747974 62.67444855 -73.44304257 59.34166683 -70.9375 56 C-70.43629639 55.33218506 -69.93509277 54.66437012 -69.41870117 53.97631836 C-66.57011651 50.16079567 -63.79122026 46.30478203 -61.06005859 42.40454102 C-56.46463107 35.84953686 -51.57169881 29.76089062 -46 24 C-45.49944092 23.46375 -44.99888184 22.9275 -44.4831543 22.375 C-40.12600318 17.82471165 -35.46362346 14.29741077 -30.1875 10.875 C-29.39142334 10.35583008 -28.59534668 9.83666016 -27.77514648 9.30175781 C-10.29150129 -1.98169685 -10.29150129 -1.98169685 0 0 Z " fill="#070707" transform="translate(271,540)"/>
<path d="M0 0 C2.47543311 1.92450965 4.82880096 3.92383642 7.16015625 6.01953125 C8.07667969 6.79683594 8.07667969 6.79683594 9.01171875 7.58984375 C20.06230148 17.63124084 26.54236594 31.45941842 28.16015625 46.01953125 C-22.32984375 46.01953125 -72.81984375 46.01953125 -124.83984375 46.01953125 C-122.78842498 27.55676228 -112.82397128 13.84668256 -98.83984375 2.01953125 C-70.15723403 -19.37860616 -29.47317726 -20.55419652 0 0 Z " fill="#FBFBFB" transform="translate(589.83984375,581.98046875)"/>
<path d="M0 0 C1.67542976 0.28604898 3.34385343 0.61781233 5 1 C5.94964526 3.9219854 6.48618524 6.03771635 5.05859375 8.86328125 C4.41083984 9.82814453 4.41083984 9.82814453 3.75 10.8125 C-2.6476369 20.34658285 -3.40009813 30.765232 -2 42 C1.37147981 58.44353474 9.35497338 73.29991729 23.078125 83.2265625 C35.16798765 91.1050275 47.57968952 94.21657483 62 91.4375 C77.36307194 86.73587023 88.15727386 77.74329239 96.18359375 63.96875 C103.30308433 50.45002858 106.67212106 34.66738009 103.2109375 19.5546875 C101.90572605 15.89810276 100.42008093 12.6818705 98.3828125 9.375 C96.78808116 6.6360264 96.57858968 5.11843633 97 2 C99 0 99 0 101.3125 -0.0625 C106.09272589 1.82735675 108.07193444 6.03212855 110.16796875 10.4765625 C116.42820583 25.43785113 115.22417454 42.13913814 109.40478516 57.05224609 C103.43335329 71.60849609 94.19087004 86.19502148 80 94 C79.34 94 78.68 94 78 94 C78.495 97.96 78.495 97.96 79 102 C82.48693251 102.913852 84.3475179 103.30004651 87.67578125 101.76953125 C102.61926187 90.67814786 112.8373002 73.36045196 116 55 C116.1763651 53.64706227 116.34468057 52.29301504 116.5 50.9375 C117 48 117 48 118.25 46 C120 45 120 45 122.625 45.25 C125 46 125 46 126 47 C125.86153749 65.7616707 117.12576358 85.69893407 104 99 C99.87517336 102.98072789 95.77599644 106.81600237 91 110 C91.165 110.61875 91.33 111.2375 91.5 111.875 C93.23331799 122.70823746 93.23331799 122.70823746 90.953125 126.9453125 C88.65640178 129.74191077 86.68834354 131.7636319 83.046875 132.2734375 C78.84851288 132.45907936 75.92509573 132.45668199 72.5625 129.75 C68.6590372 125.56091797 67.61709139 123.19731992 67.7265625 117.3515625 C68.15850816 113.63682984 69.28625529 110.1608782 70.44140625 106.61328125 C71.05951418 103.72157352 70.76980495 101.82941556 70 99 C68.989375 99.33 67.97875 99.66 66.9375 100 C63.24520089 101.07001321 59.84751793 101.15704155 56 101 C56.17256848 106.43590705 56.58692868 109.87632382 59.8125 114.3125 C64.66712945 120.99200221 68.1693973 129.64716215 67 138 C65.10672504 143.2590971 62.40216785 145.79008594 58 149 C53.14750919 150.61749694 48.46541456 151.19225575 43.73828125 148.90625 C39.08511332 145.67225528 36.38455215 142.6305121 35 137 C34.04006103 127.13579957 38.90822574 118.14287634 44 110 C44.99 109.67 45.98 109.34 47 109 C47 106.36 47 103.72 47 101 C46.33613281 100.93941406 45.67226563 100.87882813 44.98828125 100.81640625 C36.21792619 99.98418278 36.21792619 99.98418278 32 99 C31.02767542 103.24287088 30.70315239 105.83899482 32.4375 109.875 C34.81772192 115.53488254 34.84483154 120.59889982 32.8125 126.375 C30.69286083 129.44482224 29.48133993 130.63773655 26 132 C21.3948635 132.67821101 18.11234049 132.66267093 14.0625 130.25 C10.20997493 126.04724538 9.68686394 122.80810979 9.796875 117.26171875 C10.06226726 114.30667805 10.87738326 111.73637831 12 109 C11.43796875 108.7421875 10.8759375 108.484375 10.296875 108.21875 C-5.71910618 99.72047427 -15.64544705 82.33355766 -21.25390625 65.6328125 C-24.72444233 53.38599933 -24.72444233 53.38599933 -23 47 C-22 46 -22 46 -19.5625 45.8125 C-17 46 -17 46 -15 48 C-14.49145736 50.46334528 -14.06813933 52.89212195 -13.6875 55.375 C-10.61725921 73.26702375 -1.36798289 88.79272682 12.75 100.3125 C15.9200517 102.38893298 15.9200517 102.38893298 19.4375 101.3125 C20.283125 100.879375 21.12875 100.44625 22 100 C22.33 98.02 22.66 96.04 23 94 C22.29875 93.5153125 21.5975 93.030625 20.875 92.53125 C5.3874151 81.58893458 -3.43549886 69.16011614 -9 51 C-9.36609375 49.9171875 -9.7321875 48.834375 -10.109375 47.71875 C-13.25654023 34.57795481 -12.15914646 19.05745414 -5.43359375 7.25 C-2.08333333 2.08333333 -2.08333333 2.08333333 0 0 Z " fill="#0B0B0B" transform="translate(305,541)"/>
<path d="M0 0 C6.93 -0.04125 13.86 -0.0825 21 -0.125 C23.17207031 -0.14320801 25.34414063 -0.16141602 27.58203125 -0.18017578 C29.32551833 -0.18602323 31.06900816 -0.19111819 32.8125 -0.1953125 C33.70001953 -0.20554443 34.58753906 -0.21577637 35.50195312 -0.22631836 C43.9931119 -0.22867178 51.77025009 1.32476172 59 6 C64.79450452 12.09947845 65.55177769 17.1687198 65.45703125 25.4375 C64.59461587 32.15991735 60.71677405 36.42487082 56 41 C57.299375 41.5259375 57.299375 41.5259375 58.625 42.0625 C63.16669399 44.66976877 66.6413537 48.28270741 69 53 C70.37973799 68.26444312 70.37973799 68.26444312 66.3125 73.75 C64.63671875 75.52734375 64.63671875 75.52734375 63 77 C62.21625 77.763125 61.4325 78.52625 60.625 79.3125 C52.03236937 84.83633398 42.83779534 85.15455458 32.91015625 85.09765625 C32.07190308 85.09664917 31.2336499 85.09564209 30.36999512 85.09460449 C27.26748264 85.08941048 24.1649898 85.07544948 21.0625 85.0625 C14.111875 85.041875 7.16125 85.02125 0 85 C0 56.95 0 28.9 0 0 Z " fill="#050505" transform="translate(319,421)"/>
<path d="M0 0 C9.19600401 -0.09131504 18.27491628 -0.02977982 27.4375 0.875 C28.33919922 0.95363281 29.24089844 1.03226563 30.16992188 1.11328125 C35.9189907 1.65368541 41.38746926 2.64111667 47 4 C46.90912109 4.9293335 46.81824219 5.85866699 46.72460938 6.81616211 C44.48061432 29.83544359 44.48061432 29.83544359 43.625 52.9375 C43.60469727 54.36920532 43.60469727 54.36920532 43.58398438 55.82983398 C43.62320275 61.98766304 44.67357324 67.45194523 46.35693359 73.37329102 C47 76 47 76 47 80 C45.56640625 81.38671875 45.56640625 81.38671875 43.5625 82.6875 C31.58477407 91.20076905 24.5067529 101.95656459 19.5 115.625 C17.97528531 119.43678673 16.87473567 121.70930236 13.25 123.75 C8.90553249 125.34843616 4.55318692 125.99128424 0 125 C-3.56440663 123.04628758 -5.69149814 120.92550557 -7 117 C-7.23122107 113.74339075 -7.18116225 110.47879784 -7.17578125 107.21484375 C-7.17435623 106.23434555 -7.17293121 105.25384735 -7.17146301 104.24363708 C-7.09440813 94.61417727 -6.35539797 85.08752225 -5.46130371 75.50439453 C-4.98157795 70.34996258 -4.5354605 65.19263276 -4.08984375 60.03515625 C-3.99788727 58.97499298 -3.90593079 57.91482971 -3.81118774 56.82254028 C-2.77888005 44.72684717 -2.0004097 32.61596316 -1.25 20.5 C-1.18533539 19.45893097 -1.12067078 18.41786194 -1.05404663 17.34524536 C-0.69613495 11.56388248 -0.34489481 5.78215347 0 0 Z " fill="#FBFBFB" transform="translate(790,606)"/>
<path d="M0 0 C0.77730469 0.44085938 1.55460937 0.88171875 2.35546875 1.3359375 C3.14566406 1.78195312 3.93585938 2.22796875 4.75 2.6875 C5.34167969 3.02523438 5.93335938 3.36296875 6.54296875 3.7109375 C6.54296875 4.3709375 6.54296875 5.0309375 6.54296875 5.7109375 C-20.06955304 20.79894843 -47.32881849 34.724187 -74.54808044 48.67553711 C-81.43719608 52.20904246 -88.30247574 55.78750857 -95.1628418 59.37646484 C-102.41862844 63.17196087 -109.68610093 66.94453831 -116.95703125 70.7109375 C-126.22796726 75.51411039 -135.49059661 80.33276333 -144.74511719 85.16748047 C-152.224274 89.07274459 -159.7147697 92.95588556 -167.20703125 96.8359375 C-180.20291976 103.53877528 -180.20291976 103.53877528 -193.1237793 110.38427734 C-196.51481317 112.20926189 -199.87314878 113.92448927 -203.4375 115.38671875 C-206.90295385 116.90970447 -209.63743432 118.18318533 -212.45703125 120.7109375 C-213.64266833 124.28534893 -213.9526062 127.44024658 -214.15234375 131.1953125 C-214.75029242 138.09472024 -218.58186961 144.83577586 -223.45703125 149.7109375 C-231.52200929 155.75967103 -239.46562262 157.55886468 -249.45703125 156.7109375 C-257.48915047 155.48547321 -263.31719405 150.84298675 -268.45703125 144.7109375 C-271.54590771 139.29352339 -274.00487264 134.90230305 -272.45703125 128.7109375 C-268.49703125 127.7209375 -264.53703125 126.7309375 -260.45703125 125.7109375 C-260.09351563 126.53078125 -259.73 127.350625 -259.35546875 128.1953125 C-255.69429579 136.60838824 -255.69429579 136.60838824 -248.45703125 141.7109375 C-243.0969164 142.60428998 -239.04304257 141.73353587 -234.45703125 138.7109375 C-230.8824028 134.84647431 -229.28933076 131.95417625 -229.4921875 126.69140625 C-229.49541016 125.91603516 -229.49863281 125.14066406 -229.50195312 124.34179688 C-229.51359215 122.72397204 -229.5600211 121.10599333 -229.64257812 119.49023438 C-229.61498832 116.92438218 -229.42431044 115.09452084 -228.45703125 112.7109375 C-225.47044108 110.01986093 -222.0645369 108.43610951 -218.45703125 106.7109375 C-216.52951302 105.68816265 -214.6037652 104.6620452 -212.6796875 103.6328125 C-210.62788388 102.57245443 -208.57443978 101.51526586 -206.51953125 100.4609375 C-204.29406869 99.31158924 -202.06880995 98.16184624 -199.84375 97.01171875 C-198.75626465 96.45049316 -197.6687793 95.88926758 -196.54833984 95.31103516 C-192.29839337 93.11121292 -188.06370574 90.88315226 -183.83203125 88.6484375 C-157.89940092 74.97396523 -131.84988084 61.52355722 -105.76342773 48.14538574 C-89.45416988 39.78611448 -89.45416988 39.78611448 -73.22143555 31.27954102 C-67.71978939 28.36489956 -62.19147419 25.50400556 -56.65844727 22.64941406 C-45.96181966 17.12905348 -35.31952824 11.53184716 -24.78588867 5.70556641 C-23.15774471 4.80709285 -21.52594403 3.91520613 -19.89013672 3.03076172 C-18.1807701 2.10352552 -16.48271327 1.15528155 -14.79345703 0.19189453 C-13.92060059 -0.28521973 -13.04774414 -0.76233398 -12.1484375 -1.25390625 C-11.36799072 -1.69210693 -10.58754395 -2.13030762 -9.78344727 -2.58178711 C-5.91880943 -3.75671164 -3.40159045 -1.7846182 0 0 Z " fill="#050607" transform="translate(479.45703125,314.2890625)"/>
<path d="M0 0 C39.19288461 -0.08097896 78.37933898 0.12891045 117.5706408 0.44538212 C125.28141263 0.50755893 132.99220343 0.56722017 140.70299602 0.62675762 C156.46868526 0.74854138 172.23435019 0.87320695 188 1 C186.41769259 5.00353629 184.68927461 8.9078655 182.875 12.8125 C182.33617187 13.97394531 181.79734375 15.13539063 181.2421875 16.33203125 C180.83226562 17.21246094 180.42234375 18.09289062 180 19 C138.27863045 19.11930749 96.55917017 19.05709715 54.83911133 18.68161011 C50.52809816 18.64290795 46.21708593 18.60872542 41.90600586 18.57839966 C36.79521788 18.54202542 31.6846113 18.49584993 26.57397842 18.44199944 C24.68334991 18.42355109 22.79268639 18.40836665 20.90200424 18.39663887 C18.30997051 18.37985271 15.71834816 18.35091608 13.12646484 18.31884766 C12.37071419 18.31668778 11.61496353 18.31452791 10.83631134 18.31230259 C6.51370926 18.24339363 4.16034114 17.66413646 0 16 C0 10.72 0 5.44 0 0 Z " fill="#F8F9F9" transform="translate(177,821)"/>
<path d="M0 0 C1.9921875 1.125 1.9921875 1.125 3.875 2.4375 C4.57882812 2.911875 5.28265625 3.38625 6.0078125 3.875 C12.94822024 9.20195502 16.57064659 16.8583508 17.875 25.4375 C17.96293155 27.18578606 18.00524098 28.93701188 18 30.6875 C18.00386719 31.99460937 18.00386719 31.99460937 18.0078125 33.328125 C17.875 35.4375 17.875 35.4375 16.875 36.4375 C15.49339885 36.5302833 14.10711962 36.55497043 12.72241211 36.55102539 C11.84157455 36.55094986 10.960737 36.55087433 10.0532074 36.55079651 C9.09592239 36.54563522 8.13863739 36.54047394 7.15234375 36.53515625 C6.17713272 36.5337413 5.20192169 36.53232635 4.19715881 36.53086853 C1.06890857 36.52525133 -2.05927123 36.51269593 -5.1875 36.5 C-7.30273334 36.49498722 -9.41796781 36.49042393 -11.53320312 36.48632812 C-16.73049296 36.47527631 -21.92774145 36.45852146 -27.125 36.4375 C-24.42074004 42.20420879 -24.42074004 42.20420879 -19.125 45.4375 C-15.75033188 45.91061966 -15.75033188 45.91061966 -12.1875 45.8125 C-10.41052734 45.82410156 -10.41052734 45.82410156 -8.59765625 45.8359375 C-4.82440389 45.40301091 -2.45740434 44.18944554 0.875 42.4375 C4.875 42.4375 4.875 42.4375 6.83203125 44.046875 C7.75048828 45.10648437 7.75048828 45.10648437 8.6875 46.1875 C9.31269531 46.88359375 9.93789063 47.5796875 10.58203125 48.296875 C11.875 50.4375 11.875 50.4375 11.7890625 52.54296875 C9.71906384 56.83335059 4.74345657 58.64880476 0.54296875 60.421875 C-9.00616614 63.692338 -18.25308795 63.5470162 -27.58984375 59.69140625 C-36.09848783 55.48297058 -41.69468601 49.45502403 -45.265625 40.61328125 C-47.49077697 32.39033328 -47.42133603 22.93187392 -43.3046875 15.3515625 C-42.91539062 14.71992188 -42.52609375 14.08828125 -42.125 13.4375 C-41.79757812 12.82648438 -41.47015625 12.21546875 -41.1328125 11.5859375 C-33.24609744 -1.48183126 -13.71338183 -5.64952702 0 0 Z " fill="#080808" transform="translate(444.125,444.5625)"/>
<path d="M0 0 C19.8 0 39.6 0 60 0 C60 5.61 60 11.22 60 17 C46.47 17 32.94 17 19 17 C19 23.27 19 29.54 19 36 C30.88 36 42.76 36 55 36 C55 41.28 55 46.56 55 52 C43.12 52 31.24 52 19 52 C19 62.89 19 73.78 19 85 C12.73 85 6.46 85 0 85 C0 56.95 0 28.9 0 0 Z " fill="#070707" transform="translate(582,421)"/>
<path d="M0 0 C7.01215831 4.89456258 11.30028616 10.90085849 14 19 C14.91293123 28.72622885 12.8090402 36.58505401 6.671875 44.2109375 C1.61783545 49.61923216 -3.92167243 52.59311349 -11.3671875 53.3359375 C-18.58213883 53.41628217 -24.03383636 53.24757318 -30 49 C-31.051875 48.278125 -32.10375 47.55625 -33.1875 46.8125 C-39.24708959 40.75291041 -42.96154023 32.82595586 -43.375 24.25 C-43.15720295 15.7174803 -39.72415059 8.8555474 -33.93359375 2.69140625 C-24.42371452 -5.62733659 -10.65961707 -6.61091848 0 0 Z " fill="#F9F9F9" transform="translate(702,594)"/>
<path d="M0 0 C0.06398738 5.18476485 -0.13199618 10.18118304 -0.69921875 15.34375 C-0.85589588 16.80654837 -1.01246564 18.26935823 -1.16894531 19.73217773 C-1.29541443 20.89316483 -1.29541443 20.89316483 -1.42443848 22.0776062 C-3.42616293 40.51042313 -5.11665365 58.96885678 -6.75 77.4375 C-6.86250092 78.70851563 -6.97500183 79.97953125 -7.09091187 81.2890625 C-7.73078151 88.52574061 -8.36593355 95.76280712 -9 103 C-16.59 103 -24.18 103 -32 103 C-32.38500501 91.95993783 -32.69642479 80.92436961 -32.88080692 69.87909889 C-32.96933251 64.7493715 -33.08921209 59.62449352 -33.2824707 54.49755859 C-33.4680359 49.54336977 -33.56898093 44.59382165 -33.61291313 39.63642502 C-33.64418611 37.7515893 -33.70527655 35.86699218 -33.79741096 33.98414993 C-34.35895823 22.02619661 -34.35895823 22.02619661 -32 17 C-27.93332131 12.63981413 -22.57924806 10.25073768 -17.16854668 7.95240402 C-13.83060722 6.48641438 -10.72793668 4.68113074 -7.5625 2.875 C-2.26958525 0 -2.26958525 0 0 0 Z " fill="#F7F7F7" transform="translate(849,763)"/>
<path d="M0 0 C79.2 0 158.4 0 240 0 C240 3.3 240 6.6 240 10 C160.8 10 81.6 10 0 10 C0 6.7 0 3.4 0 0 Z " fill="#0A0A0A" transform="translate(594,523)"/>
<path d="M0 0 C77.55 0 155.1 0 235 0 C235 3.3 235 6.6 235 10 C157.45 10 79.9 10 0 10 C0 6.7 0 3.4 0 0 Z " fill="#0B0B0B" transform="translate(206,523)"/>
<path d="M0 0 C2.91794772 0.80336322 5.67821941 1.7132181 8.46289062 2.90454102 C9.44902344 3.31317383 10.43515625 3.72180664 11.45117188 4.14282227 C15.61214975 6.37686393 18.49292884 9.12446636 20.15039062 13.59204102 C21.45581955 24.3575912 18.12707726 33.73229146 12.15039062 42.59204102 C7.18589338 48.74607549 1.01248095 53.11018106 -6.84960938 54.59204102 C-17.69770168 55.43019384 -26.29312442 55.19262723 -34.93945312 47.80688477 C-37.63065068 45.2147497 -39.77183315 42.70870535 -41.84960938 39.59204102 C-41.86209243 35.9282639 -40.59771424 34.08416481 -38.15429688 31.54125977 C-37.02016341 30.4445355 -35.87640925 29.3576968 -34.72460938 28.27954102 C-33.520948 27.11737962 -32.31910722 25.9533295 -31.11914062 24.78735352 C-30.54502441 24.23208984 -29.9709082 23.67682617 -29.37939453 23.10473633 C-27.62135871 21.36634023 -25.99946278 19.54952105 -24.41210938 17.65454102 C-23.23151237 16.29435194 -22.04256125 14.94140732 -20.84960938 13.59204102 C-20.35348145 13.02710938 -19.85735352 12.46217773 -19.34619141 11.88012695 C-17.58390801 9.9021461 -15.78350012 7.96491757 -13.97460938 6.02954102 C-13.40943604 5.3844458 -12.8442627 4.73935059 -12.26196289 4.07470703 C-8.25753568 -0.12103079 -5.73853549 -1.13539631 0 0 Z " fill="#FCFCFC" transform="translate(481.849609375,783.407958984375)"/>
<path d="M0 0 C1.72505686 5.06097567 -0.54212285 8.62938777 -2.5625 13.3125 C-3.06620117 14.55676758 -3.06620117 14.55676758 -3.58007812 15.82617188 C-6.25116686 22.12834959 -9.4386106 27.66857498 -15.2734375 31.48828125 C-17.50564766 32.36373914 -19.73219961 33.22056602 -22 34 C-23.175625 34.4125 -24.35125 34.825 -25.5625 35.25 C-32.25017897 36.71579265 -39.2029902 36.28118667 -46 36 C-46.75958008 35.9695459 -47.51916016 35.9390918 -48.30175781 35.90771484 C-61.15692415 35.28329068 -73.69824139 33.11445938 -86.3125 30.6875 C-87.06341919 30.54496796 -87.81433838 30.40243591 -88.5880127 30.25558472 C-96.92155547 28.65959398 -105.13713204 26.80646582 -113.29296875 24.45703125 C-113.9935994 24.25808762 -114.69423004 24.05914398 -115.41609192 23.85417175 C-119.29527566 22.69530607 -122.75946552 21.46129252 -126 19 C-126.48828125 15.64453125 -126.48828125 15.64453125 -126.3125 11.8125 C-126.24482422 9.90404297 -126.24482422 9.90404297 -126.17578125 7.95703125 C-126.11777344 6.98121094 -126.05976562 6.00539063 -126 5 C-121.51291834 5.60392168 -117.11342927 6.36370798 -112.6875 7.3125 C-105.49544058 8.79957289 -98.25817479 9.9487897 -91 11.0625 C-89.94514404 11.22468018 -88.89028809 11.38686035 -87.8034668 11.55395508 C-85.65921202 11.87858263 -83.51399088 12.19688174 -81.36791992 12.50927734 C-79.05633486 12.84608677 -76.74664333 13.19607595 -74.4387207 13.55712891 C-65.67885278 14.85518679 -57.15257813 15.31362197 -48.31860352 15.26074219 C-46.17110562 15.24991736 -44.0244277 15.26077234 -41.87695312 15.2734375 C-25.32512681 15.29282878 -12.09636561 12.02521052 0 0 Z " fill="#F8F8F8" transform="translate(769,835)"/>
<path d="M0 0 C6.11780273 2.28990382 9.6637044 5.14003335 13.078125 10.78125 C16.29904331 18.53329068 13.95529602 27.89004396 11.13671875 35.40625 C7.03222279 44.77183529 -0.04802769 50.52401384 -9 55 C-11.88806817 55.15231191 -14.73587397 55.23150959 -17.625 55.25 C-18.40746094 55.270625 -19.18992187 55.29125 -19.99609375 55.3125 C-27.95003853 55.36526249 -33.99422066 53.52500266 -39.875 48 C-40.61492188 47.319375 -41.35484375 46.63875 -42.1171875 45.9375 C-44 44 -44 44 -46 41 C-45.6769131 37.70759785 -44.43746333 36.07071103 -42.12011719 33.79541016 C-41.21347321 32.8939476 -41.21347321 32.8939476 -40.28851318 31.97427368 C-39.63127258 31.33565399 -38.97403198 30.6970343 -38.296875 30.0390625 C-37.62207092 29.37087494 -36.94726685 28.70268738 -36.25201416 28.01425171 C-34.09165004 25.8772946 -31.92141296 23.75072431 -29.75 21.625 C-27.59457722 19.50476976 -25.44134392 17.38238326 -23.29083252 15.25717163 C-21.95288066 13.936037 -20.61184914 12.61801155 -19.26727295 11.30361938 C-16.423329 8.5046531 -13.69440138 5.70620167 -11.17285156 2.61083984 C-7.5157957 -1.78337986 -5.44928304 -1.1425916 0 0 Z " fill="#FBFBFA" transform="translate(593,783)"/>
<path d="M0 0 C2.23828125 1.265625 2.23828125 1.265625 3.22265625 3.078125 C3.24409377 6.07937783 2.21854151 7.88758159 0.80078125 10.515625 C0.32769531 11.40765625 -0.14539063 12.2996875 -0.6328125 13.21875 C-1.00535156 13.89421875 -1.37789062 14.5696875 -1.76171875 15.265625 C-4.84042617 14.82580965 -7.62023217 14.31808632 -10.54296875 13.234375 C-14.07958437 12.16995671 -16.95413523 12.06547023 -20.63671875 12.140625 C-21.78914063 12.15867187 -22.9415625 12.17671875 -24.12890625 12.1953125 C-24.99773437 12.21851563 -25.8665625 12.24171875 -26.76171875 12.265625 C-27.09171875 13.915625 -27.42171875 15.565625 -27.76171875 17.265625 C-24.20790555 19.6348338 -20.64129126 20.48560194 -16.57421875 21.578125 C-8.86622781 23.76109797 -2.93994752 26.00794051 2.73828125 31.828125 C5.25903745 37.60485795 5.42763658 43.6258391 3.4609375 49.64453125 C-0.15660197 56.42902699 -6.76765161 58.93426929 -13.76171875 61.265625 C-26.13335892 62.14009783 -37.61705572 61.15591847 -47.76171875 53.265625 C-47.27847056 48.11097766 -44.57561114 44.45012181 -41.76171875 40.265625 C-40.87871094 40.69875 -39.99570312 41.131875 -39.0859375 41.578125 C-31.71545536 45.05144022 -25.1026516 47.80094715 -16.76171875 46.265625 C-15.77171875 45.605625 -14.78171875 44.945625 -13.76171875 44.265625 C-13.95000647 41.82082421 -13.95000647 41.82082421 -14.76171875 39.265625 C-17.7096205 37.27579132 -20.95781516 36.70811037 -24.39770508 35.97338867 C-31.4753581 34.44080992 -37.80940258 32.94100661 -42.76171875 27.265625 C-45.84726835 22.15518348 -46.80978829 17.12070577 -45.76171875 11.265625 C-38.64793044 -7.07872726 -15.38623521 -4.92672334 0 0 Z " fill="#060606" transform="translate(516.76171875,445.734375)"/>
<path d="M0 0 C5.94 0 11.88 0 18 0 C18 5.61 18 11.22 18 17 C22.95 17 27.9 17 33 17 C33 21.95 33 26.9 33 32 C28.05 32 23.1 32 18 32 C18.11356669 36.43806659 18.24032829 40.87506727 18.375 45.3125 C18.4059375 46.57513672 18.436875 47.83777344 18.46875 49.13867188 C18.50742187 50.34716797 18.54609375 51.55566406 18.5859375 52.80078125 C18.63306885 54.47394409 18.63306885 54.47394409 18.68115234 56.1809082 C18.805249 59.20368786 18.805249 59.20368786 21 62 C25.95 61.505 25.95 61.505 31 61 C33.22656164 65.74354436 34.46148032 69.72250715 35 75 C27.27808733 78.28841908 20.05251643 80.86070453 11.73828125 78.3046875 C6.96364845 76.20420209 4.40911839 73.72557838 2 69 C0.35727399 64.10458813 -0.23955027 59.90760635 -0.1953125 54.75390625 C-0.1924826 54.09792953 -0.18965271 53.44195282 -0.18673706 52.76609802 C-0.17565984 50.69803591 -0.15058063 48.63042827 -0.125 46.5625 C-0.11495402 45.14909485 -0.10583102 43.73568283 -0.09765625 42.32226562 C-0.07576184 38.88136606 -0.04132051 35.44072748 0 32 C-2.64 32 -5.28 32 -8 32 C-8 27.05 -8 22.1 -8 17 C-5.36 17 -2.72 17 0 17 C0 11.39 0 5.78 0 0 Z " fill="#070707" transform="translate(691,428)"/>
<path d="M0 0 C6.27 0 12.54 0 19 0 C19 5.28 19 10.56 19 16 C23.62 16 28.24 16 33 16 C33 20.95 33 25.9 33 31 C28.05 31 23.1 31 18 31 C18.08679645 35.41763979 18.19367254 39.83320557 18.3125 44.25 C18.33505859 45.50425781 18.35761719 46.75851562 18.38085938 48.05078125 C18.4340332 49.85869141 18.4340332 49.85869141 18.48828125 51.703125 C18.51446533 52.81333008 18.54064941 53.92353516 18.56762695 55.06738281 C19.04172988 58.28303748 19.72258872 59.71162646 22 62 C24.50880616 62.48261667 24.50880616 62.48261667 27.1875 62.25 C28.53908203 62.19585937 28.53908203 62.19585937 29.91796875 62.140625 C30.60503906 62.09421875 31.29210937 62.0478125 32 62 C34.03993514 66.92984325 35.40652968 70.57960425 35 76 C27.22071942 79.15680951 19.85227718 80.45335069 11.6875 77.875 C6.92591269 75.84531329 4.70189799 72.56434128 1.87939453 68.31152344 C0.58234839 64.90218616 0.75488001 61.54752487 0.8046875 57.953125 C0.8075174 57.18192322 0.81034729 56.41072144 0.81326294 55.6161499 C0.82442987 53.16060668 0.84952771 50.7054324 0.875 48.25 C0.88503432 46.58203653 0.89415939 44.91406732 0.90234375 43.24609375 C0.92435775 39.16392103 0.95886333 35.082023 1 31 C-1.97 31 -4.94 31 -8 31 C-8 26.38 -8 21.76 -8 17 C-5.36 17 -2.72 17 0 17 C0 11.39 0 5.78 0 0 Z " fill="#060707" transform="translate(535,428)"/>
<path d="M0 0 C2 1 2 1 3.18359375 4.0625 C3.60913373 5.37256483 4.02665165 6.68525373 4.4375 8 C4.87887898 9.37110253 5.32028515 10.74219631 5.76171875 12.11328125 C5.9736084 12.78053223 6.18549805 13.4477832 6.40380859 14.13525391 C7.15840634 16.49545768 7.95230135 18.84155865 8.75 21.1875 C11.24790576 28.55051289 11.1421509 35.23500702 11 43 C11.04125 44.299375 11.0825 45.59875 11.125 46.9375 C7.97898955 55.50163956 -4.70324938 59.6130778 -12.39794922 63.53637695 C-13.58928467 64.14485474 -13.58928467 64.14485474 -14.8046875 64.765625 C-15.51608887 65.12430664 -16.22749023 65.48298828 -16.96044922 65.85253906 C-19.081827 66.98272637 -19.081827 66.98272637 -21.13720703 68.63964844 C-23 70 -23 70 -25 70 C-25.80626265 45.44310015 -23.37954909 25.52341647 -7 6 C-4.7541999 3.80514433 -2.4923757 1.92120627 0 0 Z " fill="#F8F8F8" transform="translate(840,697)"/>
<path d="M0 0 C2.75795035 1.72254902 5.16630894 3.81699213 7.625 5.9375 C8.33358154 6.53216064 9.04216309 7.12682129 9.7722168 7.73950195 C11.19772448 8.93585536 12.61958556 10.13656856 14.03759766 11.34179688 C16.59372334 13.5016881 19.202377 15.59337534 21.8125 17.6875 C26.44547829 21.47560033 30.84781468 25.47923851 35.25 29.53125 C38.80645545 32.72397705 42.51365131 35.70528477 46.234375 38.703125 C49.16025818 41.13309578 51.95605604 43.66980039 54.75 46.25 C58.66113 49.85250425 62.57827557 53.05218371 67 56 C66.25 60.75 66.25 60.75 64 63 C63.01 62.525625 62.02 62.05125 61 61.5625 C58.19173398 60.32640725 55.8677435 59.81416142 52.8125 59.625 C48.08184506 58.8494828 47.8132437 57.68741547 45 54 C43.37129389 52.58023974 41.70141479 51.20676217 40 49.875 C35.79599413 46.50730504 31.76134428 43.03300877 27.8125 39.375 C27.04534668 38.66585449 27.04534668 38.66585449 26.26269531 37.94238281 C25.51584473 37.25160645 25.51584473 37.25160645 24.75390625 36.546875 C18.69011425 30.93894254 12.40051867 25.65496357 6 20.4375 C5.33516602 19.89496582 4.67033203 19.35243164 3.98535156 18.79345703 C-0.59340533 15.08067752 -5.26049215 11.5049984 -10 8 C-9.67372714 4.98197607 -9.38918764 3.40308719 -7.25 1.1875 C-4.37204893 -0.33141862 -3.24355829 -0.50931907 0 0 Z " fill="#080707" transform="translate(261,660)"/>
<path d="M0 0 C5.61 0 11.22 0 17 0 C17 20.13 17 40.26 17 61 C11.39 61 5.78 61 0 61 C0 40.87 0 20.74 0 0 Z " fill="#010101" transform="translate(654,445)"/>
<path d="M0 0 C12.7487713 1.42197834 26.67594278 7.26067998 34.9375 17.37109375 C36.41735083 19.53750999 37.75492439 21.69205496 39 24 C39.57041016 25.02867187 39.57041016 25.02867187 40.15234375 26.078125 C41 28 41 28 41 31 C35.03686834 31.02464574 29.07376605 31.042834 23.1105957 31.05493164 C21.08031702 31.05997278 19.05004198 31.06680557 17.01977539 31.07543945 C14.10822653 31.08751467 11.1967255 31.09323034 8.28515625 31.09765625 C6.91485008 31.10539818 6.91485008 31.10539818 5.51686096 31.11329651 C3.34424573 31.11349168 1.17172704 31.06211805 -1 31 C-3.37581149 28.62418851 -2.18545538 22.62505822 -2.1875 19.4375 C-2.20586914 17.97086914 -2.20586914 17.97086914 -2.22460938 16.47460938 C-2.23636925 10.62210964 -1.68717054 5.60834158 0 0 Z " fill="#F7F7F7" transform="translate(180,778)"/>
<path d="M0 0 C0.74056641 -0.00386719 1.48113281 -0.00773438 2.24414062 -0.01171875 C3.00791016 -0.00011719 3.77167969 0.01148438 4.55859375 0.0234375 C5.32623047 0.01183594 6.09386719 0.00023437 6.88476562 -0.01171875 C12.41179109 0.01719333 12.41179109 0.01719333 14.7109375 1.51733398 C17.4498291 5.5262929 16.47218954 11.10439631 16.44213867 15.79516602 C16.43363508 17.82606569 16.46237754 19.8541444 16.49414062 21.88476562 C16.49349609 23.16673828 16.49285156 24.44871094 16.4921875 25.76953125 C16.49496704 27.5318811 16.49496704 27.5318811 16.49780273 29.32983398 C15.89463675 33.0189791 14.9698269 34.19468882 11.99609375 36.3984375 C8.5 36.96484375 8.5 36.96484375 4.55859375 36.9609375 C3.26050781 36.98285156 1.96242188 37.00476563 0.625 37.02734375 C-3.00390625 36.3984375 -3.00390625 36.3984375 -5.94140625 34.74609375 C-9.32417133 29.25550725 -8.68393957 23.58211776 -8.56640625 17.2734375 C-8.57736328 15.98566406 -8.58832031 14.69789063 -8.59960938 13.37109375 C-8.5255707 3.94350265 -8.5255707 3.94350265 -6.21875 1.53320312 C-3.91466493 0.35271509 -2.56476473 0.01291144 0 0 Z " fill="#F9FAFA" transform="translate(537.00390625,693.6015625)"/>
<path d="M0 0 C0.79556657 1.70652065 1.5862638 3.4153117 2.375 5.125 C2.81585938 6.07632813 3.25671875 7.02765625 3.7109375 8.0078125 C8.75137552 19.70773832 8.23786835 32.18580281 3.875 44.0625 C3.58625 44.701875 3.2975 45.34125 3 46 C-1.62192061 44.53095088 -4.80830913 41.8498231 -8.375 38.6875 C-12.77281084 34.87026235 -17.16498 31.26082744 -22 28 C-21.4175066 23.77692285 -18.94320021 20.72803779 -16.5 17.375 C-16.0565625 16.76124512 -15.613125 16.14749023 -15.15625 15.51513672 C-3.77551934 0 -3.77551934 0 0 0 Z " fill="#F8F9F8" transform="translate(238,570)"/>
<path d="M0 0 C4.04207139 -0.08108167 8.08250908 -0.14054629 12.125 -0.1875 C13.26710938 -0.21263672 14.40921875 -0.23777344 15.5859375 -0.26367188 C26.35107918 -0.35755392 26.35107918 -0.35755392 31 3 C33.4486325 6.67294875 33.83183438 9.73268965 33 14 C30.46546343 17.21954645 28.88702695 18.70432435 25 20 C23.08093083 20.08266486 21.15910526 20.10740663 19.23828125 20.09765625 C18.12001953 20.09443359 17.00175781 20.09121094 15.84960938 20.08789062 C14.68236328 20.07951172 13.51511719 20.07113281 12.3125 20.0625 C11.13365234 20.05798828 9.95480469 20.05347656 8.74023438 20.04882812 C5.82680133 20.03703285 2.91339433 20.01909727 0 20 C0 13.4 0 6.8 0 0 Z " fill="#F2F2F3" transform="translate(337,470)"/>
<path d="M0 0 C1.67542976 0.28604898 3.34385343 0.61781233 5 1 C5.94964526 3.9219854 6.48618524 6.03771635 5.05859375 8.86328125 C4.62675781 9.50652344 4.19492187 10.14976562 3.75 10.8125 C-2.63987502 20.3350157 -3.40602932 30.76577904 -2 42 C-1.14160172 45.63529325 0.00543566 49.14388289 1.39648438 52.60961914 C3.24148233 57.42335168 2.92456645 60.25611251 1 65 C-0.625 67.4375 -0.625 67.4375 -2 69 C-10.15583199 50.91991938 -15.39002534 32.3074891 -8.28515625 12.75 C-6.15060062 8.18244024 -3.59528889 3.59528889 0 0 Z " fill="#0E0D0B" transform="translate(305,541)"/>
<path d="M0 0 C0.54817383 0.16298584 1.09634766 0.32597168 1.66113281 0.49389648 C4.31441423 1.06803556 6.70742678 1.11273652 9.421875 1.09765625 C10.44667969 1.09443359 11.47148438 1.09121094 12.52734375 1.08789062 C14.12255859 1.07532227 14.12255859 1.07532227 15.75 1.0625 C16.82894531 1.05798828 17.90789063 1.05347656 19.01953125 1.04882812 C21.67974383 1.03705727 24.33984365 1.02061399 27 1 C27.11026464 6.24446182 26.70328983 11.24360953 26 16.4375 C25.90460937 17.16904297 25.80921875 17.90058594 25.7109375 18.65429688 C25.47794062 20.436723 25.23953734 22.21844104 25 24 C21.35418313 24.02887512 17.70839537 24.04675585 14.0625 24.0625 C12.50112305 24.07506836 12.50112305 24.07506836 10.90820312 24.08789062 C9.42416992 24.09272461 9.42416992 24.09272461 7.91015625 24.09765625 C6.53549194 24.10551147 6.53549194 24.10551147 5.13305664 24.11352539 C3 24 3 24 2 23 C1.59387474 20.45652939 1.24499667 17.930639 0.9375 15.375 C0.84662109 14.67503906 0.75574219 13.97507812 0.66210938 13.25390625 C0.11264057 8.80031697 -0.0883204 4.48667653 0 0 Z " fill="#F5F5F5" transform="translate(674,657)"/>
<path d="M0 0 C6.93 0 13.86 0 21 0 C24.28571429 15.85714286 24.28571429 15.85714286 25 24 C23.741875 23.67 22.48375 23.34 21.1875 23 C13.11803978 21.21101589 5.11328225 21.77535362 -3 23 C-2.88450858 20.66585761 -2.75781807 18.33317081 -2.625 16 C-2.55539062 14.700625 -2.48578125 13.40125 -2.4140625 12.0625 C-2 8 -2 8 0 0 Z " fill="#F8F8F8" transform="translate(677,557)"/>
<path d="M0 0 C3.9604297 2.09230249 6.61301326 4.22856095 9 8 C9.92034888 12.25928901 9.95288209 16.33395459 7.7578125 20.171875 C4.37831175 24.24072665 2.11748235 25.80023751 -3.3125 26.3125 C-8.61064075 25.86350502 -11.45790324 23.79911289 -14.875 19.8125 C-16.48942639 15.77643403 -16.92637226 12.27444209 -16 8 C-12.01284287 1.44009011 -7.76405036 -1.05544819 0 0 Z " fill="#080808" transform="translate(280,775)"/>
<path d="M0 0 C3.58677436 1.39370444 4.90938571 3.82711919 6.7824707 7.01245117 C7.33785774 7.92121758 7.33785774 7.92121758 7.90446472 8.8483429 C8.68272831 10.13067756 9.45302225 11.41787847 10.21582031 12.70947266 C11.38110418 14.67669318 12.57637428 16.6230477 13.77661133 18.5690918 C14.53043973 19.81991667 15.28245398 21.07183703 16.0324707 22.32495117 C16.38863968 22.90331223 16.74480865 23.48167328 17.11177063 24.07756042 C20.38782307 29.70480773 19.90609522 34.22144951 18.57543945 40.37573242 C18.38981445 41.2497168 18.20418945 42.12370117 18.01293945 43.02416992 C17.79637695 44.00256836 17.79637695 44.00256836 17.57543945 45.00073242 C16.91543945 45.00073242 16.25543945 45.00073242 15.57543945 45.00073242 C13.85497666 42.7653641 12.26641193 40.52952286 10.70043945 38.18823242 C10.22300293 37.48206787 9.74556641 36.77590332 9.25366211 36.04833984 C7.68146276 33.70736815 6.12574504 31.35625734 4.57543945 29.00073242 C4.02307617 28.161875 3.47071289 27.32301758 2.90161133 26.45874023 C1.23868264 23.91810122 -0.408585 21.3680967 -2.04956055 18.81323242 C-2.57018066 18.01232178 -3.09080078 17.21141113 -3.62719727 16.38623047 C-4.10946777 15.62608643 -4.59173828 14.86594238 -5.08862305 14.08276367 C-5.5161084 13.4147876 -5.94359375 12.74681152 -6.3840332 12.05859375 C-7.58108968 9.6911632 -8.11569648 7.63209031 -8.42456055 5.00073242 C-6.30188746 2.13512376 -3.65709523 0.00110475 0 0 Z " fill="#0A0909" transform="translate(398.424560546875,681.999267578125)"/>
<path d="M0 0 C3.72994296 -0.10802731 7.45675221 -0.18733597 11.1875 -0.25 C12.77014648 -0.30027344 12.77014648 -0.30027344 14.38476562 -0.3515625 C22.24290413 -0.45071882 22.24290413 -0.45071882 26.17578125 1.890625 C28.35828092 4.41428629 28.94271861 5.48446745 29.3125 8.8125 C28.92147661 12.80093862 27.84914102 14.22786279 25 17 C20.17097086 19.73519228 15.06512602 19.2238115 9.6875 19.125 C8.75615234 19.11597656 7.82480469 19.10695313 6.86523438 19.09765625 C4.57671177 19.07418422 2.28832221 19.03831609 0 19 C0 12.73 0 6.46 0 0 Z " fill="#F1F1F1" transform="translate(337,437)"/>
<path d="M0 0 C0.99 0.495 0.99 0.495 2 1 C2.98282763 6.59832523 3.14328141 12.0904851 3.12698364 17.76190186 C3.12932363 19.03118164 3.12932363 19.03118164 3.13171089 20.32610345 C3.13567824 23.1428761 3.13254769 25.9595942 3.12939453 28.77636719 C3.13075058 30.80418428 3.13253167 32.83200112 3.13470459 34.8598175 C3.13925809 40.35845133 3.13749698 45.85706635 3.1343255 51.35570049 C3.13178701 57.12924435 3.13414398 62.90278664 3.13571167 68.67633057 C3.13753076 78.38399543 3.13513569 88.09165269 3.13037109 97.79931641 C3.12494737 108.97806435 3.12667838 120.156794 3.1321975 131.33554149 C3.13675807 140.96226429 3.13736429 150.58898162 3.13475883 160.21570516 C3.13320981 165.9517975 3.13296382 171.68788131 3.13629532 177.42397308 C3.13921633 182.83142117 3.13712189 188.2388461 3.13140106 193.64629173 C3.13009509 195.61489257 3.13043002 197.58349541 3.13266373 199.55209541 C3.14587951 212.39937485 2.75781639 225.17467473 2 238 C1.67 238 1.34 238 1 238 C0.67 159.46 0.34 80.92 0 0 Z " fill="#474746" transform="translate(8,64)"/>
<path d="M0 0 C-8.82747116 10.49753327 -18.2209111 20.39114669 -28 30 C-28.99 29.67 -29.98 29.34 -31 29 C-32.66906331 24.60772814 -32.50407204 19.6097023 -32 15 C-28.95824847 8.28279871 -23.49069026 5.3230147 -16.8359375 2.80078125 C-11.114733 0.92659357 -6.0295093 -0.56088459 0 0 Z " fill="#F2F2F2" transform="translate(572,782)"/>
<path d="M0 0 C2.87029869 1.79393668 4.49131638 2.98263276 6 6 C6.64797087 10.71167386 6.68157643 13.97763536 4 18 C-0.0096486 20.67309907 -2.17156286 21 -7 21 C-10.66584612 19.4521983 -13.17308143 17.55768353 -15 14 C-15.53198011 9.212179 -15.72509014 7.13597455 -13.125 3.0625 C-9.2120691 -0.73534469 -5.24715458 -0.67968324 0 0 Z " fill="#080809" transform="translate(667,415)"/>
<path d="M0 0 C2.875 -0.125 2.875 -0.125 6 0 C8 2 8 2 8.1953125 5.6953125 C8.182009 7.17200108 8.15814835 8.64862358 8.125 10.125 C8.11597656 10.87910156 8.10695313 11.63320313 8.09765625 12.41015625 C8.0740687 14.27357254 8.03819719 16.13682593 8 18 C8.75925781 17.97679687 9.51851562 17.95359375 10.30078125 17.9296875 C11.29464844 17.91164063 12.28851562 17.89359375 13.3125 17.875 C14.29863281 17.85179687 15.28476562 17.82859375 16.30078125 17.8046875 C19 18 19 18 22 20 C21.25 24.75 21.25 24.75 19 27 C16.14434641 27.22552341 13.4174649 27.32428763 10.5625 27.3125 C9.39750977 27.33666992 9.39750977 27.33666992 8.20898438 27.36132812 C2.52321091 27.36622543 2.52321091 27.36622543 0.27416992 25.79199219 C-1.42370723 23.40409829 -1.358613 21.87881335 -1.328125 18.96484375 C-1.32296875 17.99095703 -1.3178125 17.01707031 -1.3125 16.01367188 C-1.291875 14.99853516 -1.27125 13.98339844 -1.25 12.9375 C-1.24484375 11.91849609 -1.2396875 10.89949219 -1.234375 9.84960938 C-1.15441985 2.30883971 -1.15441985 2.30883971 0 0 Z " fill="#101111" transform="translate(684,597)"/>
<path d="M0 0 C0.89203125 0.00902344 1.7840625 0.01804687 2.703125 0.02734375 C3.37859375 0.03894531 4.0540625 0.05054688 4.75 0.0625 C-0.34839744 6.22623421 -5.89660758 11.85847701 -11.5625 17.5 C-12.94018555 18.88348633 -12.94018555 18.88348633 -14.34570312 20.29492188 C-15.21775391 21.16568359 -16.08980469 22.03644531 -16.98828125 22.93359375 C-17.78274658 23.72693115 -18.57721191 24.52026855 -19.39575195 25.33764648 C-21.25 27.0625 -21.25 27.0625 -22.25 27.0625 C-23.10976353 12.21724965 -23.10976353 12.21724965 -20.25 7.875 C-15.01419664 2.07235753 -7.579787 -0.09973404 0 0 Z " fill="#F5F4F4" transform="translate(458.25,781.9375)"/>
<path d="M0 0 C3 1 3 1 4.3515625 3.1875 C9.78145595 15.17990271 9.78145595 15.17990271 9 21 C6.9375 24.0625 6.9375 24.0625 4 26 C0.38146271 26.6646293 -1.23101795 26.46543651 -4.375 24.5625 C-6.83326487 20.68600539 -6.86373914 17.36876752 -6 13 C-4.26052695 8.5256329 -2.21154846 4.25854718 0 0 Z " fill="#F1F2F2" transform="translate(355,657)"/>
<path d="M0 0 C3.7530638 1.64032509 7.04026048 3.4473004 9.2265625 6.984375 C10 9 10 9 10 12 C0.76 12 -8.48 12 -18 12 C-15.79492012 5.38476037 -15.17214967 4.77135914 -10 1 C-6.74573876 -0.62713062 -3.51606564 -0.55322711 0 0 Z " fill="#F5F7F7" transform="translate(434,457)"/>
<path d="M0 0 C4.99275057 1.27721526 7.57611908 3.17330957 11 7 C9.96875 7.4125 8.9375 7.825 7.875 8.25 C5.20596092 9.37920884 3.2002985 10.53826063 0.75 12.1875 C-2 14 -2 14 -5 14 C-4.7444669 8.13551546 -4.34242429 4.34242429 0 0 Z " fill="#EBEAEA" transform="translate(267,723)"/>
<path d="M0 0 C0.66 0 1.32 0 2 0 C3.99851462 4.1219364 4.25785684 7.44452917 4 12 C3.67 12.66 3.34 13.32 3 14 C1.02 14 -0.96 14 -3 14 C-4.43304064 11.13391871 -4.30644155 9.18699217 -4 6 C-2.125 2.625 -2.125 2.625 0 0 Z " fill="#ECECEC" transform="translate(327,651)"/>
<path d="M0 0 C3 1 3 1 4.6875 3.125 C6.28500119 6.62428832 6.29280234 9.19356954 6 13 C5 14 5 14 2.5625 14.1875 C0 14 0 14 -2 12 C-2.34358086 7.44755354 -1.99475484 4.11418186 0 0 Z " fill="#F1F2F2" transform="translate(383,651)"/>
<path d="M0 0 C1.32 0.33 2.64 0.66 4 1 C3.59683075 7.31631828 1.28767869 11.64993984 -2 17 C-2.66 17 -3.32 17 -4 17 C-4.44534366 10.04769059 -4.67289916 5.40303965 0 0 Z " fill="#E5E4E4" transform="translate(849,577)"/>
<path d="M0 0 C2.5625 0.1875 2.5625 0.1875 4.5625 2.1875 C4.00694444 6.74305556 4.00694444 6.74305556 2.5625 8.1875 C0.125 8.375 0.125 8.375 -2.4375 8.1875 C-3.0975 7.5275 -3.7575 6.8675 -4.4375 6.1875 C-3.71780303 0.28598485 -3.71780303 0.28598485 0 0 Z " fill="#EEEDEE" transform="translate(276.4375,783.8125)"/>
<path d="M0 0 C0.33 0 0.66 0 1 0 C0.67 15.51 0.34 31.02 0 47 C-0.33 47 -0.66 47 -1 47 C-1.19331179 40.62828282 -1.37078672 34.25626754 -1.53710938 27.88378906 C-1.59560931 25.71474153 -1.65777217 23.54578964 -1.72363281 21.37695312 C-1.81751851 18.26450002 -1.89834624 15.1519438 -1.9765625 12.0390625 C-2.00875885 11.065065 -2.0409552 10.0910675 -2.0741272 9.08755493 C-2.09429901 8.18677216 -2.11447083 7.28598938 -2.13525391 6.35791016 C-2.15746002 5.56293121 -2.17966614 4.76795227 -2.20254517 3.94888306 C-2 2 -2 2 0 0 Z " fill="#454544" transform="translate(1015,69)"/>
<path d="M0 0 C-0.33 0.99 -0.66 1.98 -1 3 C-9.25 2.67 -17.5 2.34 -26 2 C-26 1.67 -26 1.34 -26 1 C-22.04169483 0.83265991 -18.08335144 0.66624177 -14.125 0.5 C-12.43310547 0.42845703 -12.43310547 0.42845703 -10.70703125 0.35546875 C-9.63066406 0.31035156 -8.55429687 0.26523437 -7.4453125 0.21875 C-5.95281982 0.1559082 -5.95281982 0.1559082 -4.43017578 0.09179688 C-2.95418617 0.0360432 -1.47704224 0 0 0 Z " fill="#393839" transform="translate(535,783)"/>
<path d="M0 0 C3.63 0 7.26 0 11 0 C11 0.99 11 1.98 11 3 C9.54257537 3.08096803 8.08387193 3.13917774 6.625 3.1875 C5.81289063 3.22230469 5.00078125 3.25710938 4.1640625 3.29296875 C3.44992187 3.19628906 2.73578125 3.09960938 2 3 C1.34 2.01 0.68 1.02 0 0 Z " fill="#4A4A4A" transform="translate(940,8)"/>
<path d="M0 0 C2.67289025 3.87671106 2.01875653 7.79267603 1.625 12.25 C1.53992188 13.36761719 1.53992188 13.36761719 1.453125 14.5078125 C1.31223742 16.33935108 1.15748116 18.16981352 1 20 C0.67 20 0.34 20 0 20 C-0.19656224 17.79245484 -0.38185459 15.58390461 -0.5625 13.375 C-0.66691406 12.14523437 -0.77132813 10.91546875 -0.87890625 9.6484375 C-0.99191061 6.24372538 -0.69045563 3.32441602 0 0 Z " fill="#D4D4D4" transform="translate(421,741)"/>
<path d="M0 0 C1.45742463 -0.08096803 2.91612807 -0.13917774 4.375 -0.1875 C5.18710937 -0.22230469 5.99921875 -0.25710938 6.8359375 -0.29296875 C7.55007813 -0.19628906 8.26421875 -0.09960938 9 0 C9.66 0.99 10.32 1.98 11 3 C9.741875 3.020625 8.48375 3.04125 7.1875 3.0625 C6.47980469 3.07410156 5.77210938 3.08570313 5.04296875 3.09765625 C3 3 3 3 0 2 C0 1.34 0 0.68 0 0 Z " fill="#1E1F1D" transform="translate(803,604)"/>
<path d="M0 0 C0.66 0 1.32 0 2 0 C1.67 2.64 1.34 5.28 1 8 C0.01 7.67 -0.98 7.34 -2 7 C-1.125 1.125 -1.125 1.125 0 0 Z " fill="#E8E8E8" transform="translate(429,698)"/>
<path d="M0 0 C2.475 0.99 2.475 0.99 5 2 C4.67 2.66 4.34 3.32 4 4 C2.02 4 0.04 4 -2 4 C-1.34 2.68 -0.68 1.36 0 0 Z " fill="#454545" transform="translate(50,1004)"/>
<path d="M0 0 C1.32 0.66 2.64 1.32 4 2 C-0.75 5 -0.75 5 -3 5 C-1.125 1.125 -1.125 1.125 0 0 Z " fill="#1A1A1C" transform="translate(422,350)"/>
</svg>
